<svg width="12" height="12" viewBox="0 0 12 12" fill="none" xmlns="http://www.w3.org/2000/svg">
<path d="M3.20542 10.7354C5.795 11.0888 8.33833 11.4363 10.9321 11.7904C10.0483 10.3192 9.1875 8.88544 8.31958 7.44002C6.61917 8.53585 4.93458 9.62127 3.20583 10.7354H3.20542ZM11.6633 2.59169C11.435 2.9346 11.2062 3.2771 10.9783 3.62002C10.1954 4.79794 9.4125 5.97585 8.63042 7.15419C8.58667 7.22002 8.53042 7.2721 8.59167 7.37294C9.3475 8.62085 10.0971 9.87252 10.8487 11.1229C10.9675 11.3204 11.0871 11.5171 11.2408 11.7067C11.3925 8.67169 11.5446 5.63669 11.6967 2.60169C11.6854 2.59835 11.6742 2.59502 11.6633 2.5921V2.59169ZM1.34667 6.48252C1.38208 6.51627 1.47 6.53544 1.51125 6.51544C2.23625 6.15919 2.96583 5.81085 3.67458 5.42502C3.90583 5.29919 4.08375 5.07419 4.28292 4.89127C4.9425 4.28627 5.60125 3.68002 6.25958 3.07377C6.3 3.03669 6.3475 3.00044 6.37167 2.95377C6.60833 2.49169 6.84042 2.0271 7.08125 1.54919C6.79417 1.44127 6.5225 1.33585 6.24708 1.24002C6.21 1.2271 6.15083 1.25294 6.11042 1.27544C5.47292 1.63127 4.82375 1.96835 4.20667 2.35669C3.89792 2.55085 3.64625 2.83752 3.37292 3.08669C2.93208 3.48877 2.49208 3.8921 2.05792 4.30127C1.9425 4.41002 1.8375 4.53377 1.74792 4.6646C1.45083 5.0971 1.16292 5.53585 0.861667 5.98669C1.03 6.16127 1.18333 6.32794 1.34708 6.48294L1.34667 6.48252ZM3.99583 5.89169C3.63542 7.41502 3.27667 8.93002 2.90625 10.4946C4.64292 9.37544 6.34 8.2821 8.02542 7.19627C6.68417 6.7621 5.34708 6.32919 3.99583 5.8921V5.89169ZM11.2204 2.60627C9.75292 2.85127 8.32042 3.09085 6.86958 3.33294C7.36375 4.53502 7.84792 5.71294 8.34625 6.9246C9.31 5.47669 10.2546 4.05794 11.2208 2.60627H11.2204ZM4.05625 5.58002C5.37792 6.00919 6.67292 6.4296 8.00583 6.8621C7.51083 5.65627 7.03292 4.49252 6.545 3.3046C5.71375 4.0646 4.89542 4.81294 4.05625 5.58002ZM1.40125 7.37085C0.9325 8.49127 0.48 9.57335 0.0191667 10.675C0.905 10.6488 1.76375 10.6234 2.65167 10.5971C2.23458 9.52127 1.82583 8.46627 1.40125 7.37044V7.37085ZM2.6825 9.83127C2.69333 9.82919 2.70417 9.82627 2.71542 9.82419C3.03125 8.51002 3.35208 7.2046 3.675 5.83877C2.955 6.21294 2.26833 6.5696 1.56292 6.93669C1.92292 7.87252 2.30667 8.8596 2.68292 9.83127H2.6825ZM10.6892 2.39335C10.2687 2.2821 9.84833 2.17044 9.42792 2.0596C8.82333 1.90085 8.21833 1.74377 7.61417 1.58335C7.53875 1.56335 7.48417 1.55002 7.43958 1.64127C7.22625 2.07877 7.00583 2.51294 6.78917 2.94877C6.7825 2.9621 6.78375 2.9796 6.77875 3.01335C8.08792 2.81502 9.38833 2.61794 10.6883 2.42085C10.6888 2.41169 10.6887 2.40252 10.6892 2.39335ZM8.25042 1.39835C9.37917 1.71085 10.5083 2.02294 11.6767 2.34627C11.48 1.78627 11.2979 1.2671 11.1104 0.732937C10.1508 0.945854 9.20333 1.15585 8.25542 1.36585C8.25375 1.37669 8.25208 1.3871 8.25042 1.39794V1.39835ZM2.97333 10.9879C2.54875 10.9392 2.11333 10.9842 1.68292 10.9913C1.32917 10.9975 0.975833 11.0109 0.6225 11.0217C0.585833 11.0229 0.549583 11.03 0.513333 11.0692C3.43625 11.3396 6.35917 11.6096 9.28167 11.88C9.28375 11.8671 9.28542 11.8538 9.2875 11.8409C8.35042 11.7129 7.41375 11.585 6.47667 11.4571C5.30917 11.2975 4.14375 11.1225 2.97333 10.9875V10.9879ZM0.0766667 9.66669C0.453333 8.79294 0.828333 7.91794 1.20667 7.04502C1.24458 6.95752 1.24167 6.89794 1.1675 6.82752C1.00917 6.6771 0.8625 6.5146 0.689583 6.33502C0.455833 7.48919 0.227917 8.61419 0 9.7396C0.00833333 9.74335 0.0170833 9.74752 0.0254167 9.75169C0.0429167 9.72377 0.0641666 9.6971 0.0770833 9.6671L0.0766667 9.66669ZM7.5 1.16752C8.135 1.00377 8.77958 0.875437 9.42 0.73252C9.46125 0.723354 9.50208 0.709604 9.54292 0.697937C9.54083 0.68752 9.53875 0.677104 9.53667 0.666687C8.63458 0.787937 7.73208 0.909604 6.78417 1.0371C7.0425 1.15002 7.24167 1.23419 7.5 1.16794V1.16752Z" fill="#616161"/>
</svg>
