<svg width="435" height="513" viewBox="0 0 435 513" fill="none" xmlns="http://www.w3.org/2000/svg">
<g clip-path="url(#clip0_56_6013)">
<path fill-rule="evenodd" clip-rule="evenodd" d="M208.423 391.067C189.6 391.509 174.836 407.372 175.724 426.188L185.299 628.502C186.034 644.086 199.065 656.231 214.651 655.866C230.236 655.498 242.683 642.752 242.686 627.152L242.734 424.613C242.739 405.773 227.244 390.624 208.423 391.067Z" fill="#FFC999"/>
<path fill-rule="evenodd" clip-rule="evenodd" d="M288.727 377.533C307.411 375.22 324.336 388.75 326.202 407.497L346.286 609.038C347.833 624.561 336.719 638.48 321.245 640.398C305.774 642.314 291.6 631.525 289.318 616.093L259.683 415.737C256.926 397.1 270.044 379.849 288.727 377.533Z" fill="#FFC999"/>
<path fill-rule="evenodd" clip-rule="evenodd" d="M250.351 365.906C254.229 371.995 262.208 373.952 268.46 370.351L389.186 300.846C400.068 294.091 403.339 279.741 396.453 268.936C389.507 258.036 374.95 255.003 364.234 262.223L253.473 347.964C247.953 352.238 246.599 360.017 250.351 365.906Z" fill="#FFC999"/>
<path fill-rule="evenodd" clip-rule="evenodd" d="M263.695 388.128C263.695 388.128 276.54 366.665 267.473 355.034C259.261 344.502 247.772 351.431 247.772 351.431C247.772 351.431 235.26 356.51 224.578 367.059C217.537 374.009 205.492 388.58 208.641 392.774C212.747 398.242 225.42 380.952 229.47 383.841C233.624 386.804 231.273 390.57 228.735 400.895C227.148 407.348 223.047 413.085 222.745 418.814C222.156 430.01 247.109 421.93 263.695 388.128Z" fill="#FFC999"/>
<path d="M239.394 392.339C238.938 392.345 238.564 392.683 238.499 393.121L238.489 393.27L238.484 393.618C238.469 394.081 238.422 394.74 238.323 395.575C238.113 397.328 237.731 399.279 237.133 401.381C235.435 407.342 232.357 413.357 227.553 419.061C227.226 419.449 227.276 420.028 227.663 420.355C228.051 420.682 228.63 420.632 228.956 420.245C233.935 414.334 237.131 408.087 238.898 401.884C239.524 399.686 239.925 397.64 240.145 395.793L240.223 395.068C240.278 394.502 240.307 394.029 240.319 393.657L240.324 393.245C240.317 392.738 239.901 392.333 239.394 392.339Z" fill="#DD936F"/>
<path d="M248.625 393.219C248.127 393.123 247.646 393.45 247.551 393.948C246.666 398.569 244.951 403.041 242.647 407.26C241.427 409.495 240.119 411.516 238.813 413.286L238.282 413.991C238.111 414.213 237.946 414.423 237.788 414.62L237.32 415.191C237.218 415.312 237.142 415.399 237.094 415.453C236.756 415.83 236.788 416.411 237.165 416.749C237.542 417.088 238.123 417.056 238.461 416.678L238.838 416.238L238.974 416.072C239.372 415.587 239.814 415.021 240.289 414.377C241.643 412.543 242.995 410.453 244.258 408.141C246.647 403.764 248.43 399.117 249.354 394.293C249.449 393.795 249.123 393.314 248.625 393.219Z" fill="#DD936F"/>
<path d="M256.942 389.499C256.437 389.456 255.993 389.83 255.95 390.336L255.924 390.559C255.893 390.791 255.836 391.133 255.745 391.583C255.527 392.654 255.191 393.912 254.711 395.346C253.332 399.473 251.078 404.167 247.746 409.338C247.472 409.764 247.595 410.333 248.021 410.608C248.446 410.882 249.014 410.759 249.289 410.333C252.703 405.034 255.024 400.201 256.452 395.929C256.955 394.423 257.311 393.093 257.543 391.949L257.648 391.401C257.722 390.988 257.762 390.684 257.778 390.492C257.822 389.987 257.447 389.542 256.942 389.499Z" fill="#DD936F"/>
<path fill-rule="evenodd" clip-rule="evenodd" d="M190.141 195.212C190.141 195.212 141.438 164.075 187.436 126.172C176.612 99.0967 202.316 87.3655 202.316 87.3655C195.103 81.949 184.277 59.3873 211.788 39.9841C211.788 9.29886 237.951 8.24675 237.951 8.24675C237.951 8.24675 275.428 -12.8463 292.76 13.4048C326.489 19.9664 320.018 55.7771 320.018 55.7771C320.018 55.7771 339.409 69.3146 330.388 87.3655C341.212 98.1936 343.017 109.925 334.899 118.048C366.013 147.83 343.017 174.906 343.017 174.906C343.017 174.906 360.414 220.52 301.562 220.52C292.092 255.716 232.566 248.948 231.214 219.166C196.038 236.765 190.141 195.212 190.141 195.212Z" fill="#373737"/>
<path fill-rule="evenodd" clip-rule="evenodd" d="M226.501 53.8192C245.952 57.2362 251.866 42.5069 251.866 42.5069C251.866 42.5069 259.891 21.763 261.947 34.4975C263.04 41.2663 273.499 32.2863 278.307 39.4996C281.54 44.3574 273.452 50.6141 283.964 63.5604C290.054 71.06 266.03 77.0444 280.852 90.8682C280.852 90.8682 271.701 108.935 289.803 114.438L291.075 134.525C291.801 146.012 282.676 155.725 271.175 155.707C259.961 155.691 250.975 146.413 251.305 135.196L252.042 110.206C223.935 110.206 222.563 71.5488 226.501 53.8192Z" fill="#FFC999"/>
<path d="M262.362 74.3966C261.875 73.9088 261.085 73.9086 260.598 74.3962L260.343 74.6298C260.226 74.7311 260.078 74.8544 259.9 74.9953C259.289 75.4773 258.573 75.962 257.758 76.4152C254.998 77.9513 251.847 78.7463 248.381 78.4101C247.695 78.3435 247.084 78.8461 247.018 79.5326C246.952 80.2191 247.454 80.8295 248.14 80.896C252.151 81.285 255.795 80.3655 258.971 78.598C260.583 77.7014 261.729 76.796 262.362 76.1627C262.85 75.6751 262.85 74.8844 262.362 74.3966Z" fill="#F5222D"/>
<path d="M247.019 54.9594C246.564 54.9918 246.21 55.3508 246.17 55.7911L246.169 55.9542C246.193 56.6218 246.062 57.7358 245.625 59.2474C244.923 61.6781 243.611 64.4058 241.535 67.3813C241.235 67.8116 241.356 68.4057 241.8 68.6846C244.012 70.0737 245.915 71.2008 247.516 72.091L247.987 72.3509C248.464 72.6119 248.886 72.8355 249.251 73.0237L250.038 73.4146C250.498 73.627 251.044 73.4259 251.256 72.9653C251.468 72.5048 251.267 71.9593 250.807 71.7469L250.342 71.5187L249.52 71.0918C249.317 70.9835 249.099 70.8662 248.868 70.7396L247.925 70.2153C246.946 69.6625 245.857 69.0238 244.658 68.2936L243.584 67.631L243.874 67.1892C245.46 64.7278 246.552 62.4174 247.228 60.2865L247.388 59.7576C247.839 58.1974 248.007 56.9679 248.007 56.1122L248 55.8101C247.964 55.3043 247.525 54.9234 247.019 54.9594Z" fill="#DD936F"/>
<path d="M270.769 105.547C270.527 105.101 269.97 104.937 269.525 105.179C264.074 108.147 258.423 109.638 252.751 109.716C252.244 109.723 251.839 110.139 251.846 110.646C251.853 111.153 252.269 111.559 252.776 111.552C258.748 111.47 264.69 109.902 270.402 106.792C270.847 106.55 271.012 105.992 270.769 105.547Z" fill="#DD936F"/>
<path d="M260.078 54.7538C259.415 54.7538 258.878 55.2915 258.878 55.9548C258.878 60.5704 262.351 64.3506 266.689 64.3506C271.025 64.3506 274.498 60.5699 274.498 55.9548C274.498 55.2915 273.961 54.7538 273.298 54.7538C272.635 54.7538 272.097 55.2915 272.097 55.9548C272.097 59.2864 269.652 61.9485 266.689 61.9485C263.724 61.9485 261.278 59.2867 261.278 55.9548C261.278 55.2915 260.741 54.7538 260.078 54.7538Z" fill="#373737"/>
<path d="M229.79 55.5791C229.161 55.5791 228.652 56.0892 228.652 56.7185C228.652 61.2783 231.772 65.0526 235.738 65.0526C239.706 65.0526 242.825 61.2792 242.825 56.7185C242.825 56.0892 242.315 55.5791 241.686 55.5791C241.057 55.5791 240.548 56.0892 240.548 56.7185C240.548 60.1061 238.343 62.7738 235.738 62.7738C233.135 62.7738 230.929 60.1051 230.929 56.7185C230.929 56.0892 230.419 55.5791 229.79 55.5791Z" fill="#373737"/>
<path d="M273.116 42.5642C268.533 40.6294 263.681 40.8239 259.094 42.2985C257.776 42.7224 256.791 43.1508 256.226 43.4488C255.64 43.7585 255.416 44.485 255.725 45.0717C256.035 45.6583 256.761 45.8829 257.347 45.5732L257.649 45.4265C257.742 45.3833 257.852 45.3336 257.979 45.2785C258.52 45.0432 259.14 44.8068 259.829 44.5855C263.917 43.2712 268.208 43.0992 272.183 44.7774C272.909 45.0839 273.616 45.4509 274.304 45.881C274.866 46.2326 275.607 46.0616 275.958 45.4991C276.309 44.9366 276.138 44.1956 275.576 43.844C274.78 43.3459 273.959 42.9201 273.116 42.5642Z" fill="#373737"/>
<path fill-rule="evenodd" clip-rule="evenodd" d="M69.7934 179.191L44.9452 129.296C44.9452 129.296 11.574 91.0808 2.56007 95.3311C-5.61874 100.424 16.2891 109.239 22.2581 120.63C13.8071 121.51 19.5504 132.445 19.5504 132.445C19.5504 132.445 12.858 133.36 16.238 142.491C10.6319 146.963 17.4057 156.944 17.4057 156.944C17.4057 156.944 36.9758 180.048 53.9313 196.718C53.9313 196.718 77.165 212.516 69.7934 179.191Z" fill="#FFC999"/>
<path fill-rule="evenodd" clip-rule="evenodd" d="M63.4643 161.973C63.4643 161.973 58.1769 144.304 54.9528 135.391C51.7287 126.479 52.7872 109.214 46.8345 114.754C42.8334 118.481 45.2945 128.224 46.6949 135.482C48.0953 142.737 39.2767 162.003 50.0678 172.463C57.3604 179.53 66.8745 179.002 63.4643 161.973Z" fill="#FFC999"/>
<path d="M25.2554 119.399C24.834 119.084 24.2371 119.17 23.9221 119.592C23.6071 120.014 23.6933 120.611 24.1147 120.926L24.6709 121.354L25.3808 121.916C25.6294 122.116 25.8892 122.327 26.1588 122.55C27.6992 123.821 29.2393 125.186 30.6741 126.59C32.2922 128.174 33.6714 129.708 34.7356 131.146C37.4154 134.767 37.7906 137.243 35.6604 138.59C35.2157 138.872 35.083 139.46 35.3641 139.905C35.6453 140.35 36.2336 140.483 36.6783 140.202C40.0703 138.056 39.5167 134.403 36.2666 130.011C35.1353 128.482 33.6913 126.877 32.0064 125.228C30.5295 123.782 28.95 122.382 27.3707 121.079L26.5727 120.429L25.4292 119.531C25.3573 119.476 25.2991 119.432 25.2554 119.399Z" fill="#DD936F"/>
<path d="M22.2661 131.689C22.0205 132.154 22.1987 132.731 22.6639 132.977L23.2146 133.277L23.9186 133.675C24.1651 133.816 24.4228 133.966 24.6901 134.124C26.2172 135.027 27.744 136.008 29.1653 137.029C31.2318 138.514 32.8913 139.954 33.9868 141.281C35.594 143.227 35.8028 144.599 34.6263 145.629C33.762 146.385 32.5796 146.518 31.0709 146.082C29.9378 145.755 28.6965 145.124 27.4217 144.279C26.7224 143.815 26.058 143.316 25.4522 142.818L24.99 142.428C24.8634 142.318 24.7653 142.23 24.6984 142.167C24.3139 141.808 23.7111 141.829 23.3521 142.214C22.993 142.598 23.0136 143.202 23.3982 143.561L23.6014 143.745C23.764 143.89 23.9798 144.075 24.2426 144.291C24.8959 144.828 25.6114 145.365 26.3689 145.868C27.7917 146.811 29.1964 147.525 30.5424 147.914C32.6183 148.513 34.4605 148.307 35.8806 147.064C38.0147 145.196 37.6361 142.707 35.4554 140.067C34.2372 138.591 32.4644 137.053 30.2764 135.481C28.8048 134.423 27.232 133.413 25.6596 132.483L24.8653 132.02C24.7383 131.947 24.6141 131.877 24.493 131.808L23.5531 131.291C23.0878 131.045 22.5116 131.223 22.2661 131.689Z" fill="#DD936F"/>
<path d="M21.5266 141.273C21.0006 141.28 20.5796 141.712 20.5863 142.238C20.5931 142.765 21.025 143.186 21.551 143.179C22.8271 143.163 24.6095 144.018 26.898 145.938C31.701 149.969 33.0439 152.857 31.9767 153.752C30.8707 154.68 27.7237 153.846 25.39 151.477C24.5589 150.634 23.2417 151.762 23.9463 152.714C24.1319 152.965 24.3185 153.211 24.5059 153.452C29.055 159.3 32.4745 161.359 40.0814 163.921L41.3181 164.331C48.1926 166.571 50.9161 168.63 53.3625 175.008C53.551 175.5 54.1019 175.745 54.5931 175.556C55.0842 175.368 55.3296 174.817 55.1411 174.325C52.5176 167.485 49.4245 165.034 42.4154 162.686L40.604 162.086C35.348 160.311 32.2603 158.819 29.3268 156.025L29.105 155.81L29.1216 155.815C30.6227 156.177 32.0192 156.057 32.9977 155.369L33.2008 155.213C35.5979 153.202 33.7292 149.183 28.1223 144.478C25.5173 142.292 23.3453 141.25 21.5266 141.273Z" fill="#DD936F"/>
<path d="M44.8644 125.46C44.3927 125.501 44.0309 125.879 43.9961 126.337L43.997 126.492L45.1883 140.337L44.9795 140.911L44.8998 141.141C44.6267 141.941 44.3542 142.836 44.0999 143.808C43.2044 147.231 42.7554 150.702 42.9989 153.967C43.2558 157.411 44.2786 160.395 46.2148 162.756C46.5486 163.162 47.1488 163.222 47.5555 162.888C47.9622 162.554 48.0213 161.953 47.6876 161.546C46.0244 159.518 45.1285 156.905 44.8988 153.825C44.6731 150.799 45.0963 147.527 45.9429 144.291C46.1849 143.366 46.444 142.515 46.7025 141.758L46.9572 141.044C46.9899 140.957 47.0174 140.886 47.0389 140.833C47.0763 140.74 47.0988 140.642 47.1059 140.543L47.1047 140.394L45.8951 126.328C45.8545 125.856 45.4767 125.494 45.0194 125.46L44.8644 125.46Z" fill="#DD936F"/>
<path fill-rule="evenodd" clip-rule="evenodd" d="M42.8423 166.063C47.7366 161.457 55.2734 161.396 59.9536 165.928L150.325 253.424C158.355 261.745 155.496 275.232 146.811 283.409H149.137C140.379 291.658 124.426 291.283 116.654 282.582L41.3187 182.717C37.4503 177.741 38.1086 170.518 42.8423 166.063Z" fill="#FFC999"/>
<path fill-rule="evenodd" clip-rule="evenodd" d="M120.279 285.088C110.348 277.237 108.659 262.822 116.505 252.885L192.953 156.07C200.797 146.135 215.207 144.446 225.133 152.294C235.063 160.143 236.752 174.563 228.906 184.497L152.459 281.313C144.615 291.247 130.207 292.939 120.279 285.088Z" fill="#FFC999"/>
<path fill-rule="evenodd" clip-rule="evenodd" d="M196.499 225.539L228.907 184.496C236.719 174.604 235.023 160.112 225.134 152.295C215.248 144.477 200.765 146.176 192.954 156.071L160.853 196.723L196.499 225.539Z" fill="#8E8E8E"/>
<path d="M226.102 152.137C225.789 151.889 225.334 151.942 225.086 152.256C224.839 152.57 224.892 153.025 225.206 153.273C234.639 160.729 236.374 174.466 229.187 184.033L228.859 184.459L196.906 224.923L161.827 196.569C161.555 196.35 161.173 196.359 160.913 196.573L160.81 196.678C160.59 196.95 160.6 197.333 160.814 197.592L160.918 197.696L196.564 226.512C196.843 226.737 197.237 226.721 197.496 226.493L197.586 226.397L229.995 185.356C238.054 175.147 236.304 160.2 226.102 152.137Z" fill="#BF5F82"/>
<path fill-rule="evenodd" clip-rule="evenodd" d="M202.849 311.986C181.785 313.636 131.793 446.826 112.907 494.452C115.422 504.044 130.784 520.963 130.784 520.963C130.784 520.963 129.139 528.6 128.127 533.188C146.099 547.98 180.864 556.015 180.864 556.015L180.938 562.577C236.518 588.183 310.946 563.643 310.946 563.643C310.946 563.643 312.332 562.219 311.337 557.074C336.571 556.781 390.606 524.746 390.606 524.746L382.925 508.895L405.151 486.135C405.151 486.135 345.136 375.658 326.661 344.759C310.446 317.633 295.235 309.821 295.235 309.821C295.235 309.821 240.221 309.055 202.849 311.986Z" fill="#BF5F82"/>
<path d="M298.776 335.907C298.549 335.443 297.988 335.25 297.524 335.478C297.106 335.682 296.908 336.157 297.039 336.589L297.094 336.731L388.48 523.536L387.622 524.165L386.907 524.677C385.102 525.959 382.975 527.389 380.538 528.93C373.569 533.337 365.526 537.745 356.518 541.86C342.514 548.257 327.488 553.34 311.622 556.62C311.115 556.725 310.789 557.221 310.894 557.727C310.999 558.234 311.494 558.56 312 558.455C328.011 555.146 343.169 550.018 357.296 543.564C366.383 539.413 374.5 534.964 381.538 530.514C383.73 529.128 385.676 527.829 387.369 526.644L387.991 526.205C388.505 525.84 388.965 525.507 389.368 525.209L390.164 524.61C390.192 524.589 390.215 524.571 390.235 524.555C390.54 524.317 390.663 523.92 390.558 523.558L390.5 523.405L298.776 335.907Z" fill="#373737"/>
<path d="M187.744 373.872C187.308 373.707 186.827 373.888 186.602 374.279L186.537 374.417L126.324 533.804C126.169 534.214 126.319 534.678 126.686 534.918L127.117 535.195C127.467 535.417 127.879 535.674 128.353 535.963L129.563 536.692C130.615 537.318 131.776 537.988 133.04 538.693C138.092 541.513 143.749 544.332 149.88 546.963C159.882 551.256 170.151 554.62 180.439 556.701C180.946 556.803 181.44 556.475 181.543 555.968C181.645 555.461 181.317 554.966 180.81 554.864C170.658 552.81 160.509 549.486 150.619 545.241C144.55 542.637 138.95 539.846 133.952 537.057L132.504 536.238C131.338 535.571 130.278 534.944 129.328 534.364L128.346 533.754L188.288 375.079C188.453 374.644 188.272 374.162 187.881 373.937L187.744 373.872Z" fill="#373737"/>
<path d="M226.867 315.546C226.36 315.445 225.867 315.774 225.765 316.281L223.485 327.778L218.982 350.69C218.488 353.219 217.984 355.799 217.472 358.428L214.807 372.142C209.927 397.336 205.083 422.748 200.477 447.449L197.907 461.292C197.253 464.83 196.608 468.334 195.972 471.8L193.434 485.719C188.007 515.645 183.472 541.833 180.027 563.365C179.954 563.816 180.218 564.253 180.65 564.4C183.375 565.327 186.134 566.186 188.925 566.976C222.584 576.513 258.49 575.974 292.399 569.343C297.365 568.371 301.884 567.336 305.893 566.295L306.884 566.035C308.161 565.696 309.304 565.378 310.307 565.086L312.17 564.523C312.572 564.393 312.831 564.014 312.818 563.603L312.8 563.449L270.894 353.284C270.793 352.777 270.3 352.447 269.793 352.549C269.336 352.64 269.024 353.048 269.04 353.499L269.058 353.651L310.798 562.986L309.278 563.433C308.415 563.68 307.456 563.945 306.404 564.224C302.193 565.341 297.378 566.46 292.04 567.504C258.395 574.084 222.77 574.619 189.436 565.174C187.365 564.587 185.313 563.963 183.28 563.301L182.001 562.874L183.302 554.857C187.023 532.17 191.803 504.965 197.444 474.157L199.748 461.632C200.184 459.274 200.624 456.899 201.068 454.51C206.043 427.718 211.322 399.978 216.646 372.499L221.189 349.163C222.29 343.533 223.344 338.168 224.342 333.104L227.602 316.648C227.703 316.141 227.374 315.648 226.867 315.546Z" fill="#373737"/>
<path d="M249.178 319.138C248.714 319.165 248.347 319.526 248.3 319.975L248.296 320.127L258.145 494.917C258.174 495.433 258.617 495.828 259.133 495.801C259.597 495.773 259.964 495.412 260.011 494.963L260.015 494.811L250.166 320.022C250.137 319.505 249.695 319.11 249.178 319.138Z" fill="#373737"/>
<path d="M275.379 315.284C275.226 314.79 274.701 314.514 274.207 314.668C273.763 314.806 273.495 315.245 273.558 315.691L273.591 315.84L310.568 434.969C310.721 435.463 311.246 435.739 311.74 435.586C312.184 435.447 312.452 435.008 312.389 434.562L312.356 434.413L275.379 315.284Z" fill="#373737"/>
<path fill-rule="evenodd" clip-rule="evenodd" d="M299.258 311.982L297.669 299.937C297.669 299.937 250.133 300.221 203.51 297.884C202.331 303.23 200.979 312.855 200.979 312.855C204.899 309.634 247.249 319.042 299.258 311.982Z" fill="#BF5F82"/>
<path d="M205.983 311.918C205.466 311.894 205.028 312.294 205.004 312.81C204.98 313.327 205.379 313.766 205.895 313.79C227.716 314.812 248.873 315.251 267.553 315.213L272.67 315.19C277.996 315.153 282.772 315.074 286.645 314.968L289.132 314.891C290.685 314.837 291.951 314.781 292.851 314.726L293.739 314.661C293.857 314.65 293.959 314.64 294.045 314.629C294.213 314.609 294.332 314.589 294.441 314.557L294.513 314.548C294.601 314.527 294.677 314.445 295.06 314.036L294.919 313.268C294.814 312.767 294.747 312.761 294.497 312.737C294.301 312.669 294.098 312.67 293.915 312.727L293.805 312.77L293.386 312.81L292.736 312.855L291.349 312.928C290.685 312.959 289.919 312.989 289.064 313.019L286.592 313.095C282.008 313.221 276.152 313.307 269.611 313.333L265.467 313.342C247.333 313.344 226.965 312.901 205.983 311.918Z" fill="#373737"/>
<path fill-rule="evenodd" clip-rule="evenodd" d="M206.976 178.626C202.149 189.152 193.208 207.27 192.096 219.239C190.291 238.642 202.919 253.083 202.919 253.083C202.919 253.083 203.045 247.375 204.271 297.65C262.107 307.803 298.981 297.007 298.981 297.007L297.853 283.682L307.244 252.18C307.244 252.18 312.954 240.448 324.678 214.274C332.829 196.081 332.262 173.522 331.159 161.462C330.687 156.295 327.088 151.951 322.094 150.548C304.655 145.639 298.051 145.485 298.051 145.485L296.408 133.973C296.127 132.001 294.44 130.537 292.449 130.537H249.936C248.11 130.537 246.514 131.776 246.063 133.545L242.946 145.702L216.635 148.537C212.506 149.347 209.388 155.091 208.96 159.281L206.976 178.626Z" fill="#8E8E8E"/>
<path d="M247.864 145.347C247.455 145.347 247.124 145.678 247.124 146.087C247.124 146.451 247.386 146.753 247.731 146.816L247.864 146.827H286.143C286.552 146.827 286.883 146.496 286.883 146.087C286.883 145.724 286.621 145.422 286.276 145.359L286.143 145.347H247.864Z" fill="#BF5F82"/>
<path d="M299.094 142.266C298.73 141.977 298.216 142.003 297.883 142.307L297.779 142.418L257.371 193.401L241.687 145.844C241.541 145.402 241.098 145.142 240.652 145.212L240.504 145.248C240.062 145.394 239.802 145.838 239.873 146.283L239.909 146.432L256.136 195.638C256.354 196.299 257.175 196.486 257.66 196.033L257.759 195.926L299.246 143.582C299.567 143.177 299.499 142.588 299.094 142.266Z" fill="#CCD7EE"/>
<path fill-rule="evenodd" clip-rule="evenodd" d="M245.442 199.303C241.197 206.468 243.109 215.45 249.715 219.37C256.319 223.29 265.114 220.659 269.36 213.495C273.605 206.33 271.69 197.346 265.086 193.428C258.48 189.509 249.685 192.139 245.442 199.303Z" fill="#CCD7EE"/>
<path fill-rule="evenodd" clip-rule="evenodd" d="M243.916 199.268C239.673 206.433 241.585 215.415 248.189 219.335C254.795 223.255 263.59 220.624 267.833 213.46C272.079 206.295 270.166 197.311 263.562 193.393C256.956 189.473 248.161 192.104 243.916 199.268Z" fill="#E4EBF7"/>
<path fill-rule="evenodd" clip-rule="evenodd" d="M246.612 200.517C243.316 206.08 244.802 213.054 249.929 216.096C255.058 219.138 261.885 217.097 265.182 211.534C268.478 205.973 266.994 198.997 261.867 195.955C256.738 192.91 249.908 194.954 246.612 200.517Z" fill="#FAAD14"/>
<path d="M331.137 160.721C330.729 160.734 330.407 161.074 330.419 161.483L330.481 164.321L330.491 164.863C330.587 170.521 330.598 176.499 330.465 182.094L330.421 183.77C330.242 189.808 329.894 194.662 329.349 197.931C328.731 201.648 326.35 207.968 322.66 216.113L321.667 218.28C321.328 219.013 320.98 219.755 320.625 220.507C319.062 223.817 317.409 227.184 315.738 230.491L314.483 232.959C313.872 234.151 313.298 235.26 312.77 236.27L311.643 238.428L296.476 283.679L296.441 283.987L297.729 297.096L297.531 297.136C296.972 297.247 296.331 297.369 295.611 297.5L295.057 297.599C292.343 298.079 289.198 298.559 285.66 299.008C261.515 302.068 234.189 302.085 206.04 297.063L204.879 296.85L204.741 291.871L204.155 274.689L203.425 254.638L203.333 254.307L202.886 253.471L202.435 252.604C202.201 252.147 201.953 251.655 201.694 251.132C200.461 248.637 199.227 245.931 198.075 243.111C196.439 239.103 195.108 235.202 194.192 231.538C193.307 227.995 192.835 224.772 192.835 221.946C192.835 214.872 193.773 209.444 195.876 203.844C196.93 201.04 198.283 198.145 200.232 194.448L201.865 191.429L207.624 181.015L207.715 180.686L208.168 168.727C208.184 168.318 207.866 167.975 207.457 167.959C207.094 167.945 206.783 168.196 206.707 168.538L206.69 168.671L206.243 180.453L200.876 190.156L199.325 193.001C197.131 197.113 195.642 200.262 194.492 203.323C192.324 209.094 191.355 214.699 191.355 221.946C191.355 224.906 191.844 228.245 192.757 231.897C193.692 235.636 195.045 239.602 196.706 243.671C197.871 246.525 199.12 249.263 200.368 251.788L200.877 252.806C201.124 253.292 201.358 253.745 201.577 254.161L201.954 254.866L203.182 289.423C203.316 293.52 203.394 296.231 203.404 297.266L203.405 297.471C203.405 297.827 203.659 298.133 204.01 298.198C232.945 303.571 261.057 303.618 285.846 300.476C289.052 300.07 291.939 299.637 294.48 299.202L295.314 299.057C296.082 298.921 296.771 298.793 297.379 298.674L298.691 298.408C299.011 298.337 299.24 298.067 299.268 297.75L299.268 297.612L297.93 284L312.996 239.012L313.768 237.552C314.279 236.579 314.838 235.504 315.436 234.341L315.799 233.634C317.9 229.533 320.002 225.293 321.963 221.139C322.676 219.63 323.359 218.156 324.007 216.724L324.694 215.197C328.045 207.672 330.202 201.818 330.809 198.174L330.956 197.223C331.477 193.594 331.795 188.439 331.944 182.129C332.058 177.314 332.067 172.219 332.006 167.288L331.96 164.294L331.898 161.441C331.886 161.033 331.546 160.711 331.137 160.721Z" fill="#BF5F82"/>
<path fill-rule="evenodd" clip-rule="evenodd" d="M388.281 301.929L388.512 301.805C399.842 295.716 404.095 281.585 398.009 270.247L339.152 160.592C333.067 149.254 318.945 144.999 307.614 151.088L307.386 151.212C296.056 157.301 291.801 171.432 297.889 182.77L356.743 292.425C362.831 303.763 376.95 308.018 388.281 301.929Z" fill="#FFC999"/>
<path fill-rule="evenodd" clip-rule="evenodd" d="M322.324 228.298L297.041 181.193C290.946 169.839 295.243 155.559 306.592 149.458C317.939 143.36 332.212 147.661 338.307 159.016L363.351 205.673L322.324 228.298Z" fill="#8E8E8E"/>
<path d="M297.096 181.163C296.903 180.803 296.455 180.668 296.095 180.861C295.775 181.033 295.633 181.407 295.741 181.741L295.793 181.864L321.076 228.968C321.249 229.291 321.627 229.432 321.962 229.32L322.085 229.266L363.109 206.641C363.467 206.444 363.597 205.994 363.4 205.636C363.225 205.318 362.85 205.179 362.517 205.291L362.395 205.345L322.027 227.608L297.096 181.163Z" fill="#BF5F82"/>
</g>
<defs>
<clipPath id="clip0_56_6013">
<rect width="435" height="966" fill="white" transform="matrix(-1 0 0 1 435 0)"/>
</clipPath>
</defs>
</svg>
