<svg width="560" height="567" viewBox="0 0 560 567" fill="none" xmlns="http://www.w3.org/2000/svg">
<path d="M548 543H12C5.37258 543 0 548.373 0 555C0 561.627 5.37258 567 12 567H548C554.627 567 560 561.627 560 555C560 548.373 554.627 543 548 543Z" fill="#E1E2E1"/>
<g clip-path="url(#clip0_56_5681)">
<path fill-rule="evenodd" clip-rule="evenodd" d="M396.141 451.956C396.141 451.956 392.831 425.472 428.585 413.554C464.339 401.636 472.284 407.926 472.284 407.926L468.973 418.519C468.973 418.519 463.345 445.004 437.523 448.645C411.701 452.287 401.769 446.99 396.141 451.956Z" fill="#7CB305"/>
<path d="M468.45 409.175L469.496 409.987L469.41 410.096C469.372 410.142 469.325 410.199 469.27 410.266L469.104 410.461C468.988 410.597 468.86 410.744 468.72 410.901L468.612 411.02C467.886 411.826 467.009 412.722 465.98 413.686C463.046 416.433 459.476 419.177 455.25 421.737C446.765 426.877 436.745 430.614 425.138 432.354L424.707 432.417C416.894 433.551 410.668 436.147 405.845 439.758C403.532 441.49 401.696 443.344 400.289 445.193C399.799 445.837 399.398 446.433 399.08 446.965L398.976 447.142C398.928 447.227 398.883 447.306 398.844 447.379L398.733 447.591L398.726 447.605L397.529 447.038L397.566 446.963C397.642 446.812 397.766 446.583 397.943 446.287C398.286 445.712 398.714 445.075 399.235 444.391C400.714 442.447 402.637 440.506 405.052 438.698C409.98 435.008 416.301 432.349 424.174 431.157L424.517 431.107C436.127 429.421 446.122 425.718 454.564 420.604C458.708 418.093 462.206 415.405 465.075 412.719C466.01 411.844 466.813 411.029 467.487 410.291L467.629 410.134C467.838 409.901 468.021 409.692 468.177 409.507L468.352 409.298L468.45 409.175Z" fill="#7CB305"/>
<path fill-rule="evenodd" clip-rule="evenodd" d="M467.98 469.833H472.284V407.926H467.98L469.14 426.947C469.47 432.36 469.506 437.787 469.248 443.203L467.98 469.833Z" fill="#7CB305"/>
<path fill-rule="evenodd" clip-rule="evenodd" d="M401.696 361.313C401.696 361.313 414.874 341.275 446.268 353.972C477.662 366.668 479.236 376.807 479.236 376.807L470.988 380.914C470.988 380.914 451.699 395.741 431.92 383.176C412.141 370.611 408.439 361.199 401.696 361.313Z" fill="#7CB305"/>
<path fill-rule="evenodd" clip-rule="evenodd" d="M474.932 487.048H478.243L479.54 377.765C479.556 376.418 478.668 375.226 477.372 374.855L474.932 374.158C474.932 374.158 475.764 384.312 475.594 397.001C475.433 409.139 474.27 423.582 474.27 434.279C474.27 464.536 474.932 487.048 474.932 487.048Z" fill="#7CB305"/>
<path fill-rule="evenodd" clip-rule="evenodd" d="M446.462 360.585C460.748 371.673 475.263 378.793 475.263 378.793L470.988 380.914C470.988 380.914 451.699 395.741 431.92 383.176C412.141 370.611 408.439 361.199 401.696 361.313C401.696 361.313 424.281 343.37 446.462 360.585Z" fill="#5B8C00"/>
<path fill-rule="evenodd" clip-rule="evenodd" d="M556.622 408.711C556.622 408.711 547.733 395.261 526.555 403.783C505.377 412.305 504.315 419.11 504.315 419.11L509.879 421.867C509.879 421.867 522.891 431.819 536.234 423.385C549.576 414.951 552.073 408.634 556.622 408.711Z" fill="#7CB305"/>
<path fill-rule="evenodd" clip-rule="evenodd" d="M507.168 493.649H504.881L503.985 419.94C503.974 419.031 504.587 418.227 505.483 417.977L507.168 417.507C507.168 417.507 506.594 424.356 506.711 432.914C506.823 441.101 507.626 450.843 507.626 458.058C507.626 478.466 507.168 493.649 507.168 493.649Z" fill="#7CB305"/>
<path fill-rule="evenodd" clip-rule="evenodd" d="M559.094 335.822C559.094 335.822 545.916 315.783 514.521 328.48C483.127 341.177 481.554 351.316 481.554 351.316L489.802 355.423C489.802 355.423 509.091 370.25 528.87 357.685C548.648 345.12 552.35 335.708 559.094 335.822Z" fill="#7CB305"/>
<path fill-rule="evenodd" clip-rule="evenodd" d="M485.857 465.86H482.547L481.25 352.274C481.234 350.926 482.122 349.734 483.418 349.364L485.857 348.667C485.857 348.667 485.026 358.821 485.195 371.509C485.357 383.648 486.519 398.091 486.519 408.788C486.519 439.045 485.857 465.86 485.857 465.86Z" fill="#7CB305"/>
<path fill-rule="evenodd" clip-rule="evenodd" d="M559.094 335.822C559.094 335.822 536.509 317.879 514.328 335.094C500.042 346.181 485.526 353.302 485.526 353.302L489.802 355.423C489.802 355.423 509.091 370.25 528.87 357.685C548.648 345.12 552.35 335.707 559.094 335.822Z" fill="#5B8C00"/>
<path fill-rule="evenodd" clip-rule="evenodd" d="M491.816 464.867H497.444L499.67 394.511L495.431 328.107C495.447 326.759 494.559 325.567 493.263 325.197L490.823 324.5C490.823 324.5 496.12 377.234 496.12 387.932C496.12 418.188 491.816 464.867 491.816 464.867Z" fill="#7CB305"/>
<path fill-rule="evenodd" clip-rule="evenodd" d="M428.483 287.346C428.483 287.346 440.503 269.545 468.973 287.422C497.653 305.43 495.662 329.054 495.662 329.054L486.497 330.007C486.497 330.007 463.233 337.126 449.118 318.422C435.004 299.717 434.838 289.605 428.483 287.346Z" fill="#7CB305"/>
<path fill-rule="evenodd" clip-rule="evenodd" d="M428.483 287.346C428.483 287.346 441.422 277.808 452.421 291.394C458.049 298.347 468.005 303.588 472.284 307.616C483.399 318.081 491.245 329.52 491.245 329.52L486.497 330.007C486.497 330.007 463.233 337.126 449.118 318.422C435.004 299.717 434.838 289.604 428.483 287.346Z" fill="#5B8C00"/>
<path fill-rule="evenodd" clip-rule="evenodd" d="M523.186 557.562H446.381C441.993 557.562 438.436 554.005 438.436 549.617V472.812C438.436 468.424 441.993 464.867 446.381 464.867H523.186C527.574 464.867 531.131 468.424 531.131 472.812V549.617C531.131 554.005 527.574 557.562 523.186 557.562Z" fill="#373737"/>
</g>
<g clip-path="url(#clip1_56_5681)">
<path fill-rule="evenodd" clip-rule="evenodd" d="M339.557 421.98C328.008 421.98 318.491 412.93 317.926 401.409L312.359 288.074C311.596 272.549 323.994 259.545 339.557 259.545C355.121 259.545 367.518 272.549 366.755 288.074L361.189 401.409C360.623 412.93 351.106 421.98 339.557 421.98Z" fill="#BF5F82"/>
<path fill-rule="evenodd" clip-rule="evenodd" d="M270.251 405.293C258.828 403.596 250.748 393.245 251.886 381.768L263.082 268.846C264.616 253.379 278.794 242.339 294.187 244.627C309.581 246.915 319.927 261.599 316.885 276.842L294.679 388.126C292.422 399.437 281.674 406.991 270.251 405.293Z" fill="#BF5F82"/>
<path fill-rule="evenodd" clip-rule="evenodd" d="M359.723 508.252L326.748 509.534C317.402 502.529 325.298 489.608 325.298 489.608L317.841 397.824C316.866 385.585 326.284 374.994 338.569 374.516C350.854 374.039 361.068 383.867 361.048 396.145L360.8 489.783C360.8 489.783 368.748 501.157 359.723 508.252Z" fill="#BF5F82"/>
<path fill-rule="evenodd" clip-rule="evenodd" d="M297.989 501.393L266.247 503.032C256.59 496.459 262.752 484.33 262.752 484.33L251.127 392.981C249.595 380.798 258.522 369.791 270.772 368.755C283.023 367.721 293.673 377.075 294.212 389.342L298.225 482.895C298.225 482.895 306.682 493.897 297.989 501.393Z" fill="#BF5F82"/>
<path fill-rule="evenodd" clip-rule="evenodd" d="M318.211 562.847L357.927 553.386L359.125 506.374L327.6 508.15L331.966 538.462L316.159 559.743C315.058 561.227 316.412 563.275 318.211 562.847Z" fill="#373737"/>
<path fill-rule="evenodd" clip-rule="evenodd" d="M259.085 553.358L298.64 546.592L297.653 500.714L266.246 502.81L272.015 532.887L257.245 550.119C256.039 551.527 257.257 553.669 259.085 553.358Z" fill="#373737"/>
<path fill-rule="evenodd" clip-rule="evenodd" d="M352.149 210.316C352.149 210.316 395.848 122.272 391.668 113.923C387.489 105.575 356.637 86.8025 310.004 90.0087C263.168 93.2287 246.791 112.231 246.791 112.231C246.791 112.231 258.833 168.032 268.931 204.245C263.612 213.732 273.282 220.466 273.282 220.466C273.282 220.466 333.985 217.664 348.424 218.423C355.167 215.536 352.149 210.316 352.149 210.316Z" fill="#8E8E8E"/>
<path fill-rule="evenodd" clip-rule="evenodd" d="M263.168 283.966L302.105 306.134L315.06 307.925L368.292 286.973C368.292 286.973 361.791 246.564 349.687 227.804C347.761 222.511 346.979 218.543 346.979 218.543C346.979 218.543 299.293 211.327 273.282 220.467L272.319 229.126C272.319 229.126 268.196 238.919 266.058 247.887C262.445 263.041 263.168 283.966 263.168 283.966Z" fill="#BF5F82"/>
<path fill-rule="evenodd" clip-rule="evenodd" d="M342.644 83.3672L340.239 41.4741H300.501L300.539 86.734L311.937 108.382L342.644 83.3672Z" fill="#FFC2BD"/>
<path fill-rule="evenodd" clip-rule="evenodd" d="M327.313 18.1429C327.313 18.1429 305.156 12.3701 299.135 22.7127C293.28 32.772 292.874 69.1347 304.433 74.6674C313.856 79.1758 333.093 77.0724 337.669 59.5136C337.669 59.5136 341.522 46.0444 340.077 34.0183C338.632 21.9911 327.313 18.1429 327.313 18.1429Z" fill="#FFC2BD"/>
<path fill-rule="evenodd" clip-rule="evenodd" d="M337.669 48.9306C337.669 48.9306 343.69 37.3848 348.265 43.6392C352.841 49.8923 345.135 61.4381 338.391 60.9566C331.648 60.4763 337.669 48.9306 337.669 48.9306Z" fill="#FFC2BD"/>
<path fill-rule="evenodd" clip-rule="evenodd" d="M295.282 43.6387C295.282 43.6387 292.392 29.688 295.763 21.0298C299.135 12.3705 303.471 3.71124 306.601 8.28218C307.083 6.11736 309.973 1.78771 312.14 0.344491C314.307 -1.09873 321.052 8.28218 321.052 8.28218C321.052 8.28218 320.57 3.95253 323.219 6.59767C325.868 9.24395 342.004 17.4218 344.653 21.7515C347.303 26.0811 345.895 41.9975 345.895 41.9975C345.895 41.9975 340.717 41.516 337.947 51.3772C338.67 43.4395 335.361 39.2909 333.663 37.7122C333.019 37.1147 332.65 36.2826 332.583 35.4062C332.455 33.7251 332.265 30.9024 332.195 28.1446C332.163 26.9302 331.275 25.9252 330.074 25.7169C317.864 23.6056 304.442 25.504 299.661 26.327C298.58 26.5136 297.752 27.3798 297.608 28.4656L296.402 37.4868C296.402 37.4868 295.763 39.0689 295.282 43.6387Z" fill="#373737"/>
<path d="M325.052 40.4268C324.951 40.4001 324.847 40.39 324.743 40.3967L324.64 40.409L316.829 41.7714C316.305 41.8627 315.955 42.3607 316.046 42.8836C316.132 43.3739 316.575 43.712 317.062 43.6771L317.16 43.6651L324.764 42.3391L328.631 43.365C329.113 43.4927 329.606 43.2322 329.779 42.7764L329.809 42.6827C329.936 42.2017 329.676 41.709 329.219 41.537L329.125 41.507L325.052 40.4268Z" fill="#373737"/>
<path d="M301.31 39.5835C301.177 39.5482 301.038 39.5419 300.903 39.5645L300.803 39.5868L297.792 40.4279C297.28 40.5709 296.981 41.1013 297.125 41.6125C297.259 42.0918 297.734 42.3841 298.215 42.3009L298.311 42.2793L301.069 41.5082L308.522 43.4856C309.003 43.6134 309.497 43.3529 309.669 42.8971L309.699 42.8034C309.827 42.3224 309.566 41.8297 309.11 41.6577L309.016 41.6277L301.31 39.5835Z" fill="#373737"/>
<path fill-rule="evenodd" clip-rule="evenodd" d="M337.308 53.5606C337.308 53.5606 331.084 58.4127 327.833 63.4639C323.316 57.872 318.559 55.4659 318.559 55.4659C318.559 55.4659 313.104 59.5133 310.214 58.251C309.311 57.1686 309.408 56.068 309.408 56.068C309.408 56.068 304.531 57.872 301.1 62.9222C299.654 59.3153 295.583 54.643 295.583 54.643C295.583 54.643 294.717 78.1966 312.058 78.5562C329.579 78.5562 335.418 68.876 337.405 60.7573C337.864 58.2135 338.572 51.7566 337.308 53.5606Z" fill="#EFADAB"/>
<path d="M322.648 59.7544C322.492 59.3593 322.045 59.1652 321.649 59.3209L321.285 59.4544C321.186 59.4892 321.072 59.5283 320.944 59.5713C320.367 59.7639 319.719 59.9568 319.015 60.1371C316.634 60.7472 314.231 61.0628 312.009 60.9285C310.928 60.8631 309.92 60.6908 308.998 60.403C308.592 60.2763 308.16 60.5022 308.034 60.9075C307.907 61.3128 308.133 61.744 308.539 61.8707C309.586 62.1976 310.716 62.3908 311.916 62.4633C314.32 62.6086 316.874 62.2732 319.398 61.6265C320.015 61.4684 320.592 61.3008 321.121 61.1314L321.588 60.9768L322.131 60.7832C322.166 60.7699 322.194 60.7593 322.214 60.7515C322.609 60.5959 322.803 60.1495 322.648 59.7544Z" fill="#D18888"/>
<path d="M310.765 42.5906C310.477 42.6167 310.259 42.8514 310.247 43.1314L310.249 43.2088L310.482 45.768L310.322 46.5282L310.28 46.738C310.115 47.5567 309.95 48.433 309.796 49.3321C309.638 50.259 309.5 51.1584 309.389 52.0115L309.313 52.6147C308.912 55.9576 308.988 58.0191 309.864 58.7C310.712 59.3593 312.18 59.13 314.209 58.3264C314.715 58.1257 315.245 57.8914 315.791 57.6302C316.277 57.398 316.757 57.1536 317.219 56.9062L317.829 56.5726L318.243 56.3373C318.344 56.2787 318.416 56.2364 318.455 56.2132C318.724 56.0514 318.812 55.7019 318.65 55.4324C318.488 55.1629 318.138 55.0755 317.868 55.2372L317.672 55.3524L317.32 55.5527C317.256 55.5882 317.191 55.6248 317.123 55.6622C316.542 55.9833 315.925 56.3045 315.299 56.6037C314.775 56.8542 314.269 57.0781 313.788 57.2685C312.15 57.9175 310.953 58.1045 310.563 57.8018C310.154 57.4838 310.115 55.392 310.485 52.4229L310.519 52.1586C310.628 51.3215 310.764 50.4367 310.92 49.5238C311.041 48.8139 311.17 48.1179 311.3 47.4539L311.518 46.3742L311.613 45.9262C311.622 45.8881 311.626 45.8494 311.627 45.8105L311.624 45.7522L311.384 43.1059C311.358 42.819 311.123 42.6012 310.842 42.5888L310.765 42.5906Z" fill="#D18888"/>
<path d="M311.398 65.6892C311.132 65.688 310.916 65.902 310.914 66.1672C310.913 66.4084 311.09 66.6089 311.322 66.6443L311.393 66.6498L315.45 66.6692C315.716 66.6704 315.932 66.4564 315.933 66.1912C315.934 65.95 315.757 65.7495 315.526 65.7141L315.455 65.7086L311.398 65.6892Z" fill="#D18888"/>
<path d="M322.874 45.3897C321.295 45.3897 320.118 47.0349 320.118 48.9795C320.118 49.3441 320.414 49.6397 320.779 49.6397C321.144 49.6397 321.44 49.3441 321.44 48.9795C321.44 47.6871 322.139 46.71 322.874 46.71C323.609 46.71 324.308 47.6873 324.308 48.9795C324.308 49.3441 324.604 49.6397 324.969 49.6397C325.334 49.6397 325.63 49.3441 325.63 48.9795C325.63 47.0352 324.453 45.3897 322.874 45.3897Z" fill="#373737"/>
<path d="M304.473 45.3897C302.894 45.3897 301.717 47.0352 301.717 48.9795C301.717 49.3441 302.013 49.6397 302.378 49.6397C302.744 49.6397 303.039 49.3441 303.039 48.9795C303.039 47.6873 303.738 46.71 304.473 46.71C305.209 46.71 305.908 47.6871 305.908 48.9795C305.908 49.3441 306.204 49.6397 306.569 49.6397C306.934 49.6397 307.23 49.3441 307.23 48.9795C307.23 47.0349 306.053 45.3897 304.473 45.3897Z" fill="#373737"/>
<path d="M321.371 57.7097C321.148 57.4875 320.788 57.4876 320.565 57.7098C320.363 57.9119 320.345 58.2281 320.51 58.4508L320.565 58.5147L323.697 61.6413C323.92 61.8635 324.28 61.8634 324.503 61.6411C324.705 61.439 324.723 61.1229 324.558 60.9001L324.503 60.8363L321.371 57.7097Z" fill="#D18888"/>
<path d="M337.34 61.0131C337.082 60.9498 336.821 61.1073 336.758 61.3649L336.684 61.6356C336.658 61.7241 336.627 61.828 336.589 61.9462L336.55 62.0692C336.366 62.6419 336.131 63.2815 335.84 63.9711C335.007 65.9436 333.897 67.9164 332.473 69.7559C327.255 76.4984 319.387 79.7021 308.24 77.425C307.979 77.3718 307.725 77.5394 307.672 77.7993C307.619 78.0592 307.787 78.313 308.047 78.3661C319.566 80.7191 327.798 77.367 333.234 70.3434C334.712 68.4335 335.863 66.3891 336.726 64.3442C337.028 63.6278 337.274 62.9618 337.466 62.3629L337.559 62.0643L337.636 61.8019C337.664 61.7026 337.682 61.6327 337.692 61.5942C337.755 61.3366 337.597 61.0764 337.34 61.0131Z" fill="#D18888"/>
<path d="M313.084 71.8893C312.856 71.7544 312.561 71.8301 312.426 72.0585C312.314 72.2468 312.155 72.5679 311.997 72.9891C311.604 74.0398 311.45 75.1246 311.682 76.1598C311.924 77.2338 312.57 78.1507 313.667 78.8426C313.891 78.9843 314.188 78.9173 314.33 78.693C314.472 78.4688 314.405 78.1721 314.18 78.0304C313.3 77.475 312.806 76.7747 312.621 75.9495C312.436 75.1246 312.565 74.2169 312.898 73.3255C312.978 73.1126 313.063 72.9182 313.148 72.747L313.254 72.5471C313.389 72.3188 313.313 72.0242 313.084 71.8893Z" fill="#D18888"/>
<path d="M346.951 47.2194C346.726 46.0884 345.837 45.5659 344.398 46.1185C342.123 46.9917 341.889 48.6589 342.659 51.7334C343.082 53.4264 342.497 54.3805 340.923 54.6949C340.663 54.7469 340.494 54.9999 340.546 55.2601C340.598 55.5202 340.851 55.6889 341.112 55.6369C343.23 55.2137 344.147 53.7196 343.592 51.5004C342.928 48.8505 343.097 47.6469 344.743 47.0152C345.613 46.6812 345.897 46.8478 346.008 47.4069C346.051 47.6213 346.054 47.862 346.033 48.0828L346.022 48.173C345.979 48.4348 346.157 48.6817 346.419 48.7243C346.682 48.767 346.929 48.5893 346.971 48.3275L346.984 48.2376C346.986 48.2186 346.988 48.1977 346.99 48.175C347.02 47.8686 347.015 47.5398 346.951 47.2194Z" fill="#D18888"/>
<path fill-rule="evenodd" clip-rule="evenodd" d="M319.072 65.2675C319.113 65.5133 319.345 65.6795 319.591 65.6385C319.836 65.5987 320.003 65.3654 319.963 65.1207C319.922 64.8737 319.689 64.7075 319.443 64.7485C319.197 64.7895 319.031 65.0217 319.072 65.2675Z" fill="#D18888"/>
<path fill-rule="evenodd" clip-rule="evenodd" d="M325.851 66.9648C325.892 67.2106 326.125 67.3768 326.371 67.3358C326.617 67.296 326.783 67.0626 326.742 66.8179C326.701 66.5721 326.469 66.4059 326.223 66.4457C325.976 66.4867 325.81 66.7189 325.851 66.9648Z" fill="#D18888"/>
<path fill-rule="evenodd" clip-rule="evenodd" d="M304.011 68.4392C303.924 68.6725 304.043 68.932 304.276 69.0196C304.51 69.1061 304.771 68.9866 304.858 68.7533C304.944 68.52 304.826 68.2605 304.592 68.174C304.357 68.0863 304.098 68.2058 304.011 68.4392Z" fill="#D18888"/>
<path fill-rule="evenodd" clip-rule="evenodd" d="M299.773 66.2829C299.686 66.5162 299.805 66.7757 300.038 66.8633C300.272 66.9498 300.533 66.8303 300.62 66.597C300.706 66.3637 300.588 66.1042 300.354 66.0177C300.12 65.93 299.861 66.0495 299.773 66.2829Z" fill="#D18888"/>
<path fill-rule="evenodd" clip-rule="evenodd" d="M307.689 69.7529C307.601 69.9863 307.721 70.2458 307.955 70.3323C308.188 70.4188 308.448 70.3004 308.536 70.0671C308.622 69.8338 308.503 69.5742 308.269 69.4877C308.035 69.4001 307.776 69.5196 307.689 69.7529Z" fill="#D18888"/>
<path fill-rule="evenodd" clip-rule="evenodd" d="M312.959 68.7181C312.871 68.9514 312.991 69.211 313.225 69.2986C313.458 69.3851 313.719 69.2656 313.806 69.0323C313.892 68.7989 313.773 68.5394 313.539 68.4529C313.305 68.3653 313.046 68.4848 312.959 68.7181Z" fill="#D18888"/>
<path fill-rule="evenodd" clip-rule="evenodd" d="M331.111 65.1102C331.025 65.3435 331.143 65.603 331.377 65.6907C331.611 65.7772 331.872 65.6576 331.958 65.4243C332.045 65.191 331.926 64.9315 331.693 64.845C331.459 64.7573 331.199 64.8769 331.111 65.1102Z" fill="#D18888"/>
<path fill-rule="evenodd" clip-rule="evenodd" d="M322.478 71.5975C322.519 71.8433 322.752 72.0095 322.998 71.9685C323.244 71.9276 323.411 71.6954 323.37 71.4495C323.328 71.2037 323.096 71.0375 322.85 71.0785C322.604 71.1194 322.437 71.3516 322.478 71.5975Z" fill="#D18888"/>
<path fill-rule="evenodd" clip-rule="evenodd" d="M318.975 70.8978C319.016 71.1437 319.248 71.3099 319.495 71.2689C319.741 71.2279 319.907 70.9957 319.866 70.7499C319.825 70.504 319.593 70.3379 319.346 70.3788C319.1 70.4198 318.934 70.652 318.975 70.8978Z" fill="#D18888"/>
<path fill-rule="evenodd" clip-rule="evenodd" d="M304.824 72.1122C304.866 72.358 305.098 72.5242 305.344 72.4832C305.59 72.4434 305.757 72.2101 305.716 71.9654C305.675 71.7184 305.442 71.5533 305.196 71.5932C304.95 71.6342 304.783 71.8663 304.824 72.1122Z" fill="#D18888"/>
<path fill-rule="evenodd" clip-rule="evenodd" d="M307.066 66.7847C307.107 67.0305 307.339 67.1967 307.586 67.1557C307.832 67.1147 307.998 66.8826 307.957 66.6367C307.916 66.3909 307.684 66.2247 307.437 66.2657C307.191 66.3066 307.025 66.5388 307.066 66.7847Z" fill="#D18888"/>
<path fill-rule="evenodd" clip-rule="evenodd" d="M305.44 62.2748C305.482 62.5206 305.714 62.6868 305.96 62.6458C306.206 62.6048 306.373 62.3726 306.332 62.1268C306.291 61.8809 306.058 61.7148 305.812 61.7558C305.566 61.7967 305.399 62.0289 305.44 62.2748Z" fill="#D18888"/>
<path fill-rule="evenodd" clip-rule="evenodd" d="M326.296 69.7763C326.337 70.0222 326.569 70.1883 326.815 70.1474C327.06 70.1064 327.227 69.8742 327.187 69.6284C327.146 69.3825 326.913 69.2163 326.667 69.2573C326.421 69.2983 326.255 69.5305 326.296 69.7763Z" fill="#D18888"/>
<path fill-rule="evenodd" clip-rule="evenodd" d="M296.403 92.9885L298.209 85.6518L306.319 86.3734L311.177 105.011L321.931 84.4908L345.932 82.0438L349.308 93.5895C349.308 93.5895 333.675 114.803 308.325 110.908C295.801 108.983 296.403 92.9885 296.403 92.9885Z" fill="#8E8E8E"/>
<path fill-rule="evenodd" clip-rule="evenodd" d="M268.387 100.518C268.387 100.518 254.262 134.199 267.504 164.724C256.91 182.827 245.875 196.089 239.253 201.983C232.631 207.878 207.232 206.543 205.263 186.827C203.498 169.143 235.846 127.078 240.578 119.464C247.64 108.096 263.531 100.518 268.387 100.518Z" fill="#FFC2BD"/>
<path fill-rule="evenodd" clip-rule="evenodd" d="M222.7 146.199C231.422 131.86 238.666 122.481 241.129 118.517C248.192 107.149 264.084 99.5706 268.94 99.5706C268.94 99.5706 254.814 133.252 268.056 163.776C263.563 171.454 264.061 170.769 259.779 176.512C259.779 176.512 256.469 169.566 243.888 159.461C230.805 148.953 222.7 146.199 222.7 146.199Z" fill="#8E8E8E"/>
<path d="M256.042 131.047C255.807 130.992 255.572 131.138 255.517 131.373L255.474 131.572C255.441 131.732 255.404 131.921 255.364 132.14C255.252 132.763 255.14 133.498 255.035 134.34C254.408 139.386 254.33 145.613 255.152 152.842C256.29 162.837 259.031 173.47 263.728 184.559C263.822 184.781 264.079 184.885 264.301 184.791C264.524 184.697 264.628 184.441 264.533 184.219C259.869 173.208 257.149 162.656 256.021 152.743C255.206 145.585 255.284 139.427 255.902 134.448C255.99 133.739 256.084 133.11 256.178 132.562L256.225 132.295C256.29 131.934 256.34 131.691 256.368 131.571C256.423 131.337 256.277 131.102 256.042 131.047Z" fill="#373737"/>
<path fill-rule="evenodd" clip-rule="evenodd" d="M272.199 229.246C308.866 224.555 349.869 227.243 349.869 227.243L348.424 216.96C348.424 216.96 301.822 211.008 273.043 218.704C272.379 223.635 272.199 229.246 272.199 229.246Z" fill="#373737"/>
<path d="M307.496 227.523C307.142 227.515 306.848 227.796 306.84 228.15L306.805 230.206C306.8 230.543 306.795 230.898 306.79 231.272L306.761 233.981C306.663 245.372 306.831 258.028 307.438 270.17L307.513 271.624C308.262 285.714 309.542 297.067 311.456 304.714C311.542 305.057 311.891 305.266 312.235 305.18C312.578 305.095 312.787 304.747 312.701 304.403L312.508 303.609C310.725 296.074 309.514 285.087 308.795 271.556C308.102 258.522 307.929 244.799 308.058 232.633L308.093 229.896L308.123 228.178C308.131 227.824 307.85 227.531 307.496 227.523Z" fill="#373737"/>
<path d="M293.52 228.004C293.166 228 292.875 228.284 292.872 228.638L292.861 229.983L292.852 232.004C292.832 238.836 292.912 246.573 293.156 254.057L293.246 256.598C293.81 271.418 294.9 280.418 296.924 281.991C298.099 282.903 299.535 283.837 301.177 284.779C302.806 285.714 304.549 286.608 306.291 287.432L307.001 287.763C307.116 287.816 307.228 287.867 307.339 287.917L308.413 288.396C308.5 288.433 308.57 288.463 308.62 288.484C308.947 288.622 309.323 288.469 309.461 288.143C309.599 287.817 309.446 287.441 309.119 287.304L308.497 287.032L307.871 286.751C307.545 286.603 307.2 286.443 306.84 286.273C305.126 285.463 303.413 284.584 301.816 283.668C300.222 282.753 298.834 281.85 297.711 280.979C296.121 279.744 294.995 269.929 294.477 255.132C294.19 246.951 294.107 238.389 294.139 230.992L294.155 228.651C294.159 228.298 293.874 228.008 293.52 228.004Z" fill="#373737"/>
<path fill-rule="evenodd" clip-rule="evenodd" d="M316.874 225.938V215.667C316.874 214.325 315.85 213.227 314.552 213.188C310.252 213.06 300.694 212.945 292.023 214.043C290.813 214.197 289.901 215.25 289.901 216.508V226.165C289.901 227.546 290.985 228.662 292.322 228.645C297.236 228.584 308.433 228.451 314.496 228.417C315.816 228.41 316.874 227.302 316.874 225.938Z" fill="#E4EBF7"/>
<path fill-rule="evenodd" clip-rule="evenodd" d="M314.092 224.165L314.09 217.366C314.09 216.479 313.253 215.752 312.194 215.727C308.685 215.643 300.888 215.571 293.814 216.299C292.827 216.402 292.083 217.099 292.083 217.933L292.085 224.325C292.086 225.239 292.971 225.976 294.061 225.966C298.071 225.924 307.206 225.832 312.152 225.808C313.229 225.802 314.092 225.068 314.092 224.165Z" fill="#373737"/>
<path fill-rule="evenodd" clip-rule="evenodd" d="M292.159 214.988L314.929 225.137L313.988 227.204L291.029 216.867L292.159 214.988Z" fill="#E4EBF7"/>
<path fill-rule="evenodd" clip-rule="evenodd" d="M291.18 224.811L314.003 214.78L314.906 216.865L291.816 226.909L291.18 224.811Z" fill="#E4EBF7"/>
<path d="M337.455 227.537C337.108 227.609 336.885 227.949 336.958 228.295L337.079 228.828C337.105 228.935 337.133 229.049 337.163 229.17C337.334 229.857 337.543 230.622 337.791 231.445C338.5 233.797 339.383 236.151 340.453 238.352C344.37 246.41 349.712 250.419 356.592 247.887C356.925 247.764 357.095 247.396 356.973 247.064C356.85 246.732 356.481 246.562 356.149 246.684C350.06 248.925 345.273 245.332 341.608 237.792C340.57 235.658 339.71 233.367 339.019 231.075C338.818 230.407 338.643 229.778 338.494 229.201L338.328 228.532L338.214 228.033C338.141 227.686 337.801 227.464 337.455 227.537Z" fill="#373737"/>
<path d="M300.712 303.303C300.372 303.201 300.014 303.394 299.913 303.733C299.819 304.046 299.975 304.374 300.267 304.503L300.343 304.531L313.177 308.377C313.517 308.478 313.875 308.286 313.976 307.947C314.07 307.634 313.914 307.306 313.622 307.177L313.546 307.149L300.712 303.303Z" fill="#373737"/>
<path fill-rule="evenodd" clip-rule="evenodd" d="M403.179 322.272L404.989 266.302C405.048 264.508 403.682 262.987 401.891 262.847L327.757 256.364C325.857 256.216 324.213 257.673 324.136 259.574L321.681 319.717C321.605 321.587 323.074 323.158 324.946 323.21L399.725 325.521C401.575 325.571 403.118 324.12 403.179 322.272Z" fill="#8E8E8E"/>
<path fill-rule="evenodd" clip-rule="evenodd" d="M406.455 322.904L408.301 265.844C408.349 264.349 407.212 263.08 405.719 262.964L330.472 256.394C328.888 256.271 327.518 257.484 327.453 259.07L324.952 320.359C324.888 321.917 326.113 323.227 327.675 323.27L403.577 325.61C405.119 325.654 406.405 324.444 406.455 322.904Z" fill="#373737"/>
<path fill-rule="evenodd" clip-rule="evenodd" d="M384.549 105.496C384.549 105.496 397.554 108.382 403.333 130.511C409.114 152.638 406.946 172.843 405.501 200.745C404.057 228.645 393.942 277.472 389.606 295.271C385.271 313.07 383.684 319.011 379.25 325.336C376.721 328.944 372.507 329.786 369.617 328.704C365.764 332.552 359.622 329.907 359.622 329.907C359.622 329.907 350.35 332.312 348.424 327.02C340.837 328.103 344.089 317.639 343.125 313.791C342.162 309.942 346.136 302.245 356.732 291.663C363.475 279.637 357.455 172.362 354.564 158.892C351.674 145.423 351.795 108.382 384.549 105.496Z" fill="#FFC2BD"/>
<path fill-rule="evenodd" clip-rule="evenodd" d="M356.371 176.21C356.371 176.21 349.388 132.915 356.131 119.446C362.874 105.976 373.68 95.7544 390.81 108.381C411.041 123.294 406.947 166.829 406.947 166.829C406.947 166.829 384.549 171.881 356.371 176.21Z" fill="#8E8E8E"/>
<path d="M374.128 113.697C372.977 113.625 371.678 113.699 370.171 114.044C367.963 114.55 365.799 115.556 363.776 117.18C357.72 122.042 353.892 131.532 353.305 146.86L353.286 147.385L355.936 177.692C355.957 177.932 356.169 178.109 356.409 178.089C356.626 178.07 356.792 177.896 356.807 177.687L356.807 177.616L354.159 147.362C354.671 132.011 358.421 122.598 364.324 117.86C366.24 116.322 368.283 115.372 370.366 114.895C371.666 114.598 372.796 114.515 373.803 114.554L374.345 114.586C374.409 114.589 374.464 114.59 374.485 114.588C374.724 114.56 374.896 114.343 374.868 114.104C374.84 113.864 374.623 113.693 374.383 113.721C374.42 113.717 374.302 113.708 374.128 113.697Z" fill="#373737"/>
<path d="M349.368 312.883C349.132 312.894 348.949 313.094 348.96 313.329L348.992 314.223L348.998 314.446C349.053 316.452 349.056 318.583 348.971 320.577C348.845 323.539 348.54 325.751 348.036 326.842C347.937 327.056 348.031 327.309 348.245 327.408C348.459 327.507 348.713 327.413 348.812 327.199C349.379 325.972 349.694 323.687 349.825 320.613C349.91 318.596 349.908 316.446 349.853 314.423L349.814 313.29C349.803 313.055 349.603 312.873 349.368 312.883Z" fill="#D18888"/>
<path d="M347.389 93.8013C347.315 93.5974 347.105 93.4824 346.898 93.5215L346.829 93.5403L330.935 99.3132C330.708 99.3956 330.591 99.646 330.673 99.8726C330.747 100.076 330.958 100.192 331.165 100.152L331.233 100.134L347.128 94.3607C347.355 94.2783 347.472 94.0279 347.389 93.8013Z" fill="#373737"/>
<path d="M311.299 104.591C311.067 104.524 310.825 104.657 310.757 104.889L310.612 105.41L310.468 105.947C310.418 106.136 310.366 106.335 310.313 106.544L310.232 106.864C309.839 108.424 309.446 110.148 309.079 111.99C308.214 116.338 307.629 120.644 307.455 124.674C307.339 127.356 307.41 129.84 307.691 132.086C307.721 132.326 307.94 132.495 308.179 132.465C308.419 132.435 308.589 132.217 308.559 131.978C308.284 129.784 308.214 127.348 308.328 124.711C308.501 120.732 309.079 116.468 309.937 112.161C310.26 110.537 310.604 109.005 310.95 107.599L311.238 106.457L311.582 105.183C311.588 105.164 311.593 105.147 311.597 105.132C311.664 104.901 311.531 104.659 311.299 104.591Z" fill="#373737"/>
<path fill-rule="evenodd" clip-rule="evenodd" d="M206.48 97.6635C215.404 113.327 225.871 141.235 247.272 172.373C247.272 172.373 255.237 196.704 232.765 203.364C210.854 209.86 203.984 184.637 203.984 184.637C192.347 156.661 185.289 128.894 182.092 109.091C181.764 107.059 181.281 105.031 181.771 103.029C182.443 100.287 184.38 96.9123 189.436 94.3821C201.436 88.3782 206.48 97.6635 206.48 97.6635Z" fill="#FFC2BD"/>
<path fill-rule="evenodd" clip-rule="evenodd" d="M199.669 115.115C199.669 115.115 204.17 111.179 206.097 103.468C208.01 95.8191 208.929 74.1367 208.699 72.8699C207.915 68.5584 203.083 70.062 201.951 82.5638C196.585 75.2646 194.84 68.8452 195.991 62.7275C197.143 56.6086 189.709 55.87 185.483 63.8907C181.256 71.9115 175.963 77.747 177.24 86.2993C178.854 97.0915 180.864 106.688 184.702 113.539C188.929 121.087 192.502 120.256 199.669 115.115Z" fill="#FFC2BD"/>
<path d="M202.115 82.0812C201.872 81.9992 201.61 82.11 201.497 82.3313L201.468 82.4009L199.624 87.8467L199.366 88.1505L199.046 88.5372C198.879 88.7407 198.703 88.9592 198.519 89.1914C197.644 90.2968 196.769 91.4884 195.951 92.7225C194.944 94.2431 194.095 95.7227 193.455 97.1248C192.046 100.212 191.719 102.749 192.826 104.548C192.974 104.788 193.289 104.863 193.529 104.715C193.769 104.568 193.844 104.254 193.696 104.014C192.816 102.583 193.103 100.355 194.384 97.5478C194.999 96.1993 195.823 94.7645 196.803 93.2852C197.603 92.0771 198.462 90.9082 199.32 89.824L199.836 89.1833L200.387 88.5239C200.417 88.4897 200.441 88.462 200.459 88.441C200.489 88.4073 200.514 88.37 200.533 88.3301L200.559 88.2682L202.435 82.7276C202.525 82.4608 202.382 82.1714 202.115 82.0812Z" fill="#D18888"/>
<path d="M184.165 73.9937C183.851 72.2324 182.907 71.2164 181.238 71.6842C180.967 71.7603 180.809 72.0418 180.885 72.313C180.961 72.5841 181.243 72.7422 181.514 72.6661C182.453 72.4028 182.937 72.9233 183.159 74.1721C183.243 74.6409 183.27 75.1401 183.261 75.6045L183.248 75.9313L183.243 75.9991L183.215 76.1271L183.198 76.2115C183.159 76.4097 183.12 76.6384 183.083 76.8954C182.63 80.0878 182.984 83.6795 184.757 87.0881C185.103 87.7531 185.499 88.3972 185.947 89.018C186.112 89.2464 186.431 89.2981 186.66 89.1333C186.889 88.9686 186.94 88.6499 186.775 88.4215C186.356 87.8412 185.986 87.2393 185.663 86.618C184.002 83.4246 183.669 80.0385 184.094 77.0384L184.137 76.7567C184.172 76.5414 184.205 76.3752 184.23 76.263L184.245 76.2022L184.258 76.125L184.267 75.994L184.271 75.9311C184.302 75.3229 184.28 74.6449 184.165 73.9937Z" fill="#D18888"/>
<path d="M187.269 70.6985C187.094 75.2595 187.625 78.7371 188.629 81.272C189.165 82.6249 189.715 83.4394 190.107 83.8148C190.311 84.0097 190.634 84.003 190.829 83.7997C191.024 83.5965 191.018 83.2737 190.814 83.0788L190.758 83.0192C190.69 82.942 190.588 82.8117 190.46 82.6226C190.163 82.1826 189.862 81.6119 189.579 80.8968C188.629 78.4987 188.119 75.1602 188.29 70.7127L188.309 70.2635L188.307 70.0944C188.296 69.5669 188.231 68.8641 188.066 68.1541C187.84 67.1803 187.473 66.4468 186.884 66.052C186.107 65.5317 185.13 65.7176 184.02 66.5985C183.799 66.7737 183.762 67.0945 183.938 67.315C184.113 67.5355 184.434 67.5722 184.655 67.397C185.452 66.7641 185.968 66.6661 186.315 66.8988C186.635 67.1134 186.899 67.6402 187.072 68.3845C187.166 68.7896 187.227 69.2288 187.261 69.6693L187.277 69.9155C187.281 69.9902 187.284 70.0573 187.285 70.1155L187.288 70.2549L187.269 70.6985Z" fill="#D18888"/>
<path d="M191.917 62.0377C191.461 60.6223 190.469 59.9466 188.862 60.083C188.581 60.1068 188.373 60.3536 188.397 60.6342C188.42 60.9148 188.668 61.123 188.949 61.0991C190.077 61.0034 190.633 61.3822 190.944 62.3497C191.204 63.1566 191.269 64.049 191.273 66.3098L191.275 68.0098C191.284 69.5247 191.321 70.4659 191.427 71.6012C191.64 73.8846 192.074 75.9213 192.664 77.7061C192.968 78.6239 193.294 79.4176 193.622 80.0855L193.763 80.3664C193.896 80.6231 194.003 80.807 194.074 80.9177C194.227 81.1543 194.543 81.2224 194.78 81.0698C195.017 80.9171 195.085 80.6015 194.932 80.3649L194.865 80.2549C194.787 80.1208 194.675 79.9146 194.539 79.637C194.231 79.0101 193.923 78.2592 193.634 77.3861C193.067 75.6733 192.649 73.7121 192.444 71.5067L192.41 71.1243C192.318 69.9922 192.294 68.9646 192.294 67.1471L192.294 66.0532C192.285 63.8524 192.21 62.9493 191.917 62.0377Z" fill="#D18888"/>
<path d="M228.088 139.877C227.957 139.628 227.648 139.531 227.399 139.662C227.172 139.781 227.071 140.046 227.153 140.281L227.183 140.35L247.767 179.616C247.898 179.866 248.207 179.962 248.457 179.832C248.684 179.713 248.784 179.447 248.702 179.213L248.672 179.143L228.088 139.877Z" fill="#D18888"/>
</g>
<defs>
<clipPath id="clip0_56_5681">
<rect width="164" height="279" fill="white" transform="translate(396 279)"/>
</clipPath>
<clipPath id="clip1_56_5681">
<rect width="232" height="563.069" fill="white" transform="matrix(-1 0 0 1 409 0)"/>
</clipPath>
</defs>
</svg>
