<svg width="335" height="242" viewBox="0 0 335 242" fill="none" xmlns="http://www.w3.org/2000/svg">
<g clip-path="url(#clip0_56_4763)">
<path d="M302.175 10.9314H220.644C218.433 10.9314 216.639 12.7245 216.639 14.9365V128.878H289.473C289.473 141.11 299.933 149.657 312.186 149.594C324.227 149.534 334.078 139.326 334.078 127.286V42.6783H312.82C309.429 42.6783 302.175 35.2556 302.175 31.8663V10.9314Z" fill="#F5F5F6"/>
<path d="M289.634 128.519H206.1C206.1 139.446 214.048 147.346 224.476 149.097L228.148 149.404L311.849 149.237C299.673 149.237 289.323 139.887 289.634 128.519Z" fill="#BF5F82"/>
<path d="M252.553 21.6182H234.317C233.454 21.6182 232.755 22.3175 232.755 23.1801V41.4166C232.755 42.2792 233.454 42.9786 234.317 42.9786H252.553C253.416 42.9786 254.115 42.2792 254.115 41.4166V23.1801C254.115 22.3175 253.416 21.6182 252.553 21.6182Z" fill="#F48FB1"/>
<path d="M311.258 53.4919H234.28C233.418 53.4919 232.718 54.1913 232.718 55.0539V57.2701C232.718 58.1327 233.418 58.8321 234.28 58.8321H311.258C312.12 58.8321 312.82 58.1327 312.82 57.2701V55.0539C312.82 54.1913 312.12 53.4919 311.258 53.4919Z" fill="#F48FB1"/>
<path d="M311.258 69.5708H234.28C233.418 69.5708 232.718 70.2701 232.718 71.1328V73.3489C232.718 74.2116 233.418 74.9109 234.28 74.9109H311.258C312.12 74.9109 312.82 74.2116 312.82 73.3489V71.1328C312.82 70.2701 312.12 69.5708 311.258 69.5708Z" fill="#F48FB1"/>
<path d="M311.258 85.6493H234.28C233.418 85.6493 232.718 86.3486 232.718 87.2113V89.4274C232.718 90.2901 233.418 90.9894 234.28 90.9894H311.258C312.12 90.9894 312.82 90.2901 312.82 89.4274V87.2113C312.82 86.3486 312.12 85.6493 311.258 85.6493Z" fill="#F48FB1"/>
<path opacity="0.6" d="M302.165 37.5699V41.7419C302.165 42.6384 302.538 43.4945 303.195 44.1043C303.852 44.7142 304.734 45.0228 305.628 44.956L334.187 42.8316L302.165 37.5699Z" fill="#E1E2E1"/>
<path d="M318.719 26.8282L302.13 10.8296L302.173 41.4918C302.173 42.2291 302.771 42.8268 303.508 42.8268H334.187L318.719 26.8282Z" fill="#F5F5F6"/>
</g>
<g clip-path="url(#clip1_56_4763)">
<path fill-rule="evenodd" clip-rule="evenodd" d="M37.8417 210.854L30.4092 203.422L89.8794 143.951L97.312 151.384L37.8417 210.854Z" fill="#8E8E8E"/>
<path fill-rule="evenodd" clip-rule="evenodd" d="M151.248 157.026C114.239 157.026 84.2379 127.024 84.2379 90.0157C84.2379 53.007 114.239 23.0054 151.248 23.0054C188.256 23.0054 218.258 53.007 218.258 90.0157C218.258 127.024 188.256 157.026 151.248 157.026ZM151.248 0.668701C101.903 0.668701 61.9011 40.6705 61.9011 90.0157C61.9011 139.36 101.903 179.363 151.248 179.363C200.593 179.363 240.595 139.36 240.595 90.0157C240.595 40.6705 200.593 0.668701 151.248 0.668701Z" fill="#F48FB1"/>
<path fill-rule="evenodd" clip-rule="evenodd" d="M103.877 90.0154C103.877 63.8535 125.086 42.6448 151.248 42.6448C177.41 42.6448 198.619 63.8535 198.619 90.0154C198.619 116.178 177.41 137.386 151.248 137.386C125.086 137.386 103.877 116.178 103.877 90.0154Z" fill="#F48FB1"/>
<path fill-rule="evenodd" clip-rule="evenodd" d="M151.248 116.294C136.734 116.294 124.969 104.529 124.969 90.0156C124.969 75.5023 136.734 63.7371 151.248 63.7371C165.761 63.7371 177.526 75.5023 177.526 90.0156C177.526 104.529 165.761 116.294 151.248 116.294Z" fill="white"/>
<path fill-rule="evenodd" clip-rule="evenodd" d="M9.03672 239.659L1.60422 232.227C-0.448164 230.174 -0.44815 226.847 1.60425 224.794L53.8222 172.576C55.8746 170.523 59.2024 170.523 61.2548 172.576C61.2549 172.576 61.2549 172.576 61.2548 172.576L68.6876 180.008C70.7401 182.061 70.7401 185.389 68.6876 187.441L16.4694 239.659C14.4169 241.712 11.0892 241.712 9.03672 239.659C9.0367 239.659 9.03669 239.659 9.03672 239.659Z" fill="#F48FB1"/>
</g>
<defs>
<clipPath id="clip0_56_4763">
<rect width="129" height="140" fill="white" transform="translate(206 10)"/>
</clipPath>
<clipPath id="clip1_56_4763">
<rect width="241" height="242" fill="white"/>
</clipPath>
</defs>
</svg>
