<svg width="18" height="18" viewBox="0 0 18 18" fill="none" xmlns="http://www.w3.org/2000/svg">
<path d="M9 10.1249C8.70163 10.1249 8.41548 10.0064 8.2045 9.79538C7.99353 9.5844 7.875 9.29826 7.875 8.99989C7.875 8.70152 7.99353 8.41537 8.2045 8.20439C8.41548 7.99341 8.70163 7.87489 9 7.87489C9.29837 7.87489 9.58452 7.99341 9.7955 8.20439C10.0065 8.41537 10.125 8.70152 10.125 8.99989C10.125 9.29826 10.0065 9.5844 9.7955 9.79538C9.58452 10.0064 9.29837 10.1249 9 10.1249ZM8.604 12.3704C8.73525 12.5279 8.86725 12.6809 9 12.8271C9.13275 12.6809 9.26475 12.5286 9.396 12.3704C9.13203 12.376 8.86797 12.376 8.604 12.3704ZM7.10775 12.2766C6.5318 12.2167 5.95965 12.1246 5.394 12.0006C5.33775 12.2631 5.295 12.5181 5.2665 12.7626C5.124 13.9499 5.32275 14.6714 5.625 14.8454C5.92725 15.0201 6.651 14.8311 7.60875 14.1149C7.806 13.9671 8.00475 13.8029 8.20425 13.6236C7.81387 13.1955 7.4478 12.7458 7.10775 12.2766ZM12.606 12.0006C12.0683 12.1206 11.4937 12.2136 10.8923 12.2766C10.5522 12.7458 10.1861 13.1955 9.79575 13.6236C9.99525 13.8036 10.194 13.9671 10.3912 14.1149C11.349 14.8311 12.0728 15.0201 12.375 14.8454C12.6772 14.6714 12.8752 13.9499 12.7343 12.7626C12.7033 12.5068 12.6608 12.2526 12.6068 12.0006H12.606ZM13.6935 11.7104C14.1262 13.6896 13.899 15.2654 12.9375 15.8204C11.976 16.3754 10.4978 15.7844 9 14.4201C7.50225 15.7844 6.024 16.3746 5.0625 15.8196C4.101 15.2646 3.87375 13.6896 4.30575 11.7096C2.37525 11.0954 1.125 10.1099 1.125 8.99989C1.125 7.88989 2.37525 6.90514 4.30575 6.28939C3.87375 4.31014 4.101 2.73439 5.0625 2.17939C6.024 1.62439 7.50225 2.21539 9 3.57964C10.4978 2.21539 11.976 1.62514 12.9375 2.18014C13.899 2.73514 14.1263 4.31014 13.6943 6.29014C15.6248 6.90439 16.875 7.88989 16.875 8.99989C16.875 10.1099 15.6248 11.0946 13.6943 11.7104H13.6935ZM8.2035 4.37614C8.01277 4.20349 7.81432 4.03957 7.60875 3.88489C6.651 3.16864 5.92725 2.97964 5.625 3.15439C5.32275 3.32839 5.12475 4.04989 5.26575 5.23714C5.29575 5.48239 5.33775 5.73664 5.39325 5.99914C5.95915 5.87519 6.53154 5.78304 7.10775 5.72314C7.464 5.23339 7.8315 4.78264 8.20425 4.37614H8.2035ZM10.8923 5.72314C11.4937 5.78614 12.0683 5.87989 12.606 5.99914C12.6623 5.73664 12.705 5.48164 12.7335 5.23714C12.876 4.04989 12.6772 3.32839 12.375 3.15439C12.0728 2.97964 11.349 3.16864 10.3912 3.88489C10.1854 4.03956 9.98673 4.20347 9.79575 4.37614C10.1685 4.78264 10.536 5.23339 10.8923 5.72314ZM9.396 5.62939C9.26475 5.47189 9.13275 5.31889 9 5.17264C8.86725 5.31889 8.73525 5.47114 8.604 5.62939C8.86797 5.62378 9.13203 5.62378 9.396 5.62939ZM6.279 11.0279C6.14217 10.8022 6.01014 10.5737 5.883 10.3424C5.81175 10.5351 5.74575 10.7249 5.68575 10.9131C5.8785 10.9551 6.0765 10.9934 6.27825 11.0279H6.279ZM7.728 11.2034C8.57483 11.2663 9.42517 11.2663 10.272 11.2034C10.7499 10.5014 11.1751 9.76483 11.544 8.99989C11.1751 8.23495 10.7499 7.49842 10.272 6.79639C9.42517 6.73349 8.57483 6.73349 7.728 6.79639C7.2501 7.49842 6.82493 8.23495 6.456 8.99989C6.82493 9.76483 7.2501 10.5014 7.728 11.2034ZM12.117 7.65739C12.1883 7.46464 12.2543 7.27489 12.3143 7.08664C12.1176 7.04397 11.9201 7.00571 11.7218 6.97189C11.8583 7.19757 11.9901 7.42612 12.117 7.65739ZM4.5975 7.37764C4.3425 7.46014 4.101 7.55014 3.8745 7.64764C2.77575 8.11864 2.25 8.65114 2.25 8.99989C2.25 9.34864 2.775 9.88114 3.8745 10.3521C4.101 10.4496 4.3425 10.5396 4.5975 10.6221C4.764 10.0971 4.97025 9.55264 5.21625 8.99989C4.97987 8.47112 4.77329 7.92952 4.5975 7.37764ZM5.685 7.08664C5.74575 7.27414 5.81175 7.46464 5.883 7.65664C6.01015 7.42561 6.14218 7.19731 6.279 6.97189C6.0765 7.00639 5.8785 7.04464 5.68575 7.08664H5.685ZM13.4025 10.6221C13.6575 10.5396 13.899 10.4496 14.1255 10.3521C15.2242 9.88114 15.75 9.34864 15.75 8.99989C15.75 8.65114 15.225 8.11864 14.1255 7.64764C13.8887 7.54676 13.6475 7.45667 13.4025 7.37764C13.236 7.90264 13.0297 8.44714 12.7838 8.99989C13.0297 9.55264 13.236 10.0964 13.4025 10.6221ZM12.315 10.9131C12.2543 10.7256 12.1883 10.5351 12.117 10.3431C11.9899 10.5742 11.8578 10.8025 11.721 11.0279C11.9235 10.9934 12.1215 10.9551 12.3143 10.9131H12.315Z" fill="#616161"/>
</svg>
