<svg width="240" height="48" viewBox="0 0 240 48" fill="none" xmlns="http://www.w3.org/2000/svg">
<rect width="240" height="48" fill="#E1E2E1"/>
<g clip-path="url(#clip0_4294_1920)">
<path d="M21 23H29V25H21V28L16 24L21 20V23ZM20 30H22.708C23.8627 31.0183 25.2867 31.6819 26.8091 31.9109C28.3316 32.14 29.8878 31.9249 31.291 31.2915C32.6942 30.6581 33.8849 29.6332 34.7201 28.3398C35.5553 27.0465 35.9995 25.5396 35.9995 24C35.9995 22.4604 35.5553 20.9535 34.7201 19.6602C33.8849 18.3668 32.6942 17.3419 31.291 16.7085C29.8878 16.0751 28.3316 15.86 26.8091 16.0891C25.2867 16.3181 23.8627 16.9817 22.708 18H20C20.9307 16.7572 22.1383 15.7485 23.5271 15.0541C24.9158 14.3598 26.4473 13.9988 28 14C33.523 14 38 18.477 38 24C38 29.523 33.523 34 28 34C26.4473 34.0012 24.9158 33.6402 23.5271 32.9459C22.1383 32.2515 20.9307 31.2428 20 30Z" fill="#616161"/>
</g>
<path d="M49.4091 30V18.3636H50.8182V28.75H56.2273V30H49.4091ZM62.2727 30.1818C61.4848 30.1818 60.7936 29.9943 60.1989 29.6193C59.608 29.2443 59.1458 28.7197 58.8125 28.0455C58.483 27.3712 58.3182 26.5833 58.3182 25.6818C58.3182 24.7727 58.483 23.9792 58.8125 23.3011C59.1458 22.6231 59.608 22.0966 60.1989 21.7216C60.7936 21.3466 61.4848 21.1591 62.2727 21.1591C63.0606 21.1591 63.75 21.3466 64.3409 21.7216C64.9356 22.0966 65.3977 22.6231 65.7273 23.3011C66.0606 23.9792 66.2273 24.7727 66.2273 25.6818C66.2273 26.5833 66.0606 27.3712 65.7273 28.0455C65.3977 28.7197 64.9356 29.2443 64.3409 29.6193C63.75 29.9943 63.0606 30.1818 62.2727 30.1818ZM62.2727 28.9773C62.8712 28.9773 63.3636 28.8239 63.75 28.517C64.1364 28.2102 64.4223 27.8068 64.608 27.3068C64.7936 26.8068 64.8864 26.2652 64.8864 25.6818C64.8864 25.0985 64.7936 24.5549 64.608 24.0511C64.4223 23.5473 64.1364 23.1402 63.75 22.8295C63.3636 22.5189 62.8712 22.3636 62.2727 22.3636C61.6742 22.3636 61.1818 22.5189 60.7955 22.8295C60.4091 23.1402 60.1231 23.5473 59.9375 24.0511C59.7519 24.5549 59.6591 25.0985 59.6591 25.6818C59.6591 26.2652 59.7519 26.8068 59.9375 27.3068C60.1231 27.8068 60.4091 28.2102 60.7955 28.517C61.1818 28.8239 61.6742 28.9773 62.2727 28.9773ZM72.2969 33.4545C71.6491 33.4545 71.0923 33.3712 70.6264 33.2045C70.1605 33.0417 69.7723 32.8258 69.4616 32.5568C69.1548 32.2917 68.9105 32.0076 68.7287 31.7045L69.7969 30.9545C69.9181 31.1136 70.0715 31.2955 70.2571 31.5C70.4427 31.7083 70.6965 31.8883 71.0185 32.0398C71.3442 32.1951 71.7704 32.2727 72.2969 32.2727C73.0014 32.2727 73.5829 32.1023 74.0412 31.7614C74.4995 31.4205 74.7287 30.8864 74.7287 30.1591V28.3864H74.6151C74.5166 28.5455 74.3764 28.7424 74.1946 28.9773C74.0166 29.2083 73.759 29.4148 73.4219 29.5966C73.0885 29.7746 72.6378 29.8636 72.0696 29.8636C71.3651 29.8636 70.7325 29.697 70.1719 29.3636C69.6151 29.0303 69.1738 28.5455 68.848 27.9091C68.526 27.2727 68.3651 26.5 68.3651 25.5909C68.3651 24.697 68.5223 23.9186 68.8366 23.2557C69.151 22.589 69.5885 22.0739 70.1491 21.7102C70.7098 21.3428 71.3575 21.1591 72.0923 21.1591C72.6605 21.1591 73.1113 21.2538 73.4446 21.4432C73.7817 21.6288 74.0393 21.8409 74.2173 22.0795C74.3991 22.3144 74.5393 22.5076 74.6378 22.6591H74.7741V21.2727H76.0696V30.25C76.0696 31 75.8991 31.6098 75.5582 32.0795C75.2211 32.553 74.7666 32.8996 74.1946 33.1193C73.6264 33.3428 72.9938 33.4545 72.2969 33.4545ZM72.2514 28.6591C72.7893 28.6591 73.2438 28.536 73.6151 28.2898C73.9863 28.0436 74.2685 27.6894 74.4616 27.2273C74.6548 26.7652 74.7514 26.2121 74.7514 25.5682C74.7514 24.9394 74.6567 24.3845 74.4673 23.9034C74.2779 23.4223 73.9976 23.0455 73.6264 22.7727C73.2552 22.5 72.7969 22.3636 72.2514 22.3636C71.6832 22.3636 71.2098 22.5076 70.831 22.7955C70.456 23.0833 70.1738 23.4697 69.9844 23.9545C69.7988 24.4394 69.706 24.9773 69.706 25.5682C69.706 26.1742 69.8007 26.7102 69.9901 27.1761C70.1832 27.6383 70.4673 28.0019 70.8423 28.267C71.2211 28.5284 71.6908 28.6591 72.2514 28.6591ZM87.5696 30.1818C86.7817 30.1818 86.0904 29.9943 85.4957 29.6193C84.9048 29.2443 84.4427 28.7197 84.1094 28.0455C83.7798 27.3712 83.6151 26.5833 83.6151 25.6818C83.6151 24.7727 83.7798 23.9792 84.1094 23.3011C84.4427 22.6231 84.9048 22.0966 85.4957 21.7216C86.0904 21.3466 86.7817 21.1591 87.5696 21.1591C88.3575 21.1591 89.0469 21.3466 89.6378 21.7216C90.2325 22.0966 90.6946 22.6231 91.0241 23.3011C91.3575 23.9792 91.5241 24.7727 91.5241 25.6818C91.5241 26.5833 91.3575 27.3712 91.0241 28.0455C90.6946 28.7197 90.2325 29.2443 89.6378 29.6193C89.0469 29.9943 88.3575 30.1818 87.5696 30.1818ZM87.5696 28.9773C88.1681 28.9773 88.6605 28.8239 89.0469 28.517C89.4332 28.2102 89.7192 27.8068 89.9048 27.3068C90.0904 26.8068 90.1832 26.2652 90.1832 25.6818C90.1832 25.0985 90.0904 24.5549 89.9048 24.0511C89.7192 23.5473 89.4332 23.1402 89.0469 22.8295C88.6605 22.5189 88.1681 22.3636 87.5696 22.3636C86.9711 22.3636 86.4787 22.5189 86.0923 22.8295C85.706 23.1402 85.42 23.5473 85.2344 24.0511C85.0488 24.5549 84.956 25.0985 84.956 25.6818C84.956 26.2652 85.0488 26.8068 85.2344 27.3068C85.42 27.8068 85.706 28.2102 86.0923 28.517C86.4787 28.8239 86.9711 28.9773 87.5696 28.9773ZM99.571 26.4318V21.2727H100.912V30H99.571V28.5227H99.4801C99.2756 28.9659 98.9574 29.3428 98.5256 29.6534C98.0938 29.9602 97.5483 30.1136 96.8892 30.1136C96.3438 30.1136 95.8589 29.9943 95.4347 29.7557C95.0104 29.5133 94.6771 29.1496 94.4347 28.6648C94.1922 28.1761 94.071 27.5606 94.071 26.8182V21.2727H95.4119V26.7273C95.4119 27.3636 95.59 27.8712 95.946 28.25C96.3059 28.6288 96.7642 28.8182 97.321 28.8182C97.6544 28.8182 97.9934 28.733 98.3381 28.5625C98.6866 28.392 98.9782 28.1307 99.2131 27.7784C99.4517 27.4261 99.571 26.9773 99.571 26.4318ZM107.663 21.2727V22.4091H103.141V21.2727H107.663ZM104.459 19.1818H105.8V27.5C105.8 27.8788 105.855 28.1629 105.964 28.3523C106.078 28.5379 106.222 28.6629 106.396 28.7273C106.574 28.7879 106.762 28.8182 106.959 28.8182C107.107 28.8182 107.228 28.8106 107.322 28.7955C107.417 28.7765 107.493 28.7614 107.55 28.75L107.822 29.9545C107.732 29.9886 107.605 30.0227 107.442 30.0568C107.279 30.0947 107.072 30.1136 106.822 30.1136C106.444 30.1136 106.072 30.0322 105.709 29.8693C105.349 29.7064 105.05 29.4583 104.811 29.125C104.576 28.7917 104.459 28.3712 104.459 27.8636V19.1818Z" fill="#616161"/>
<defs>
<clipPath id="clip0_4294_1920">
<rect width="24" height="24" fill="white" transform="translate(16 12)"/>
</clipPath>
</defs>
</svg>
