<svg width="14" height="14" viewBox="0 0 14 14" fill="none" xmlns="http://www.w3.org/2000/svg">
<path d="M7 7.99997C6.73478 7.99997 6.48043 7.89462 6.29289 7.70708C6.10536 7.51955 6 7.26519 6 6.99997C6 6.73476 6.10536 6.4804 6.29289 6.29287C6.48043 6.10533 6.73478 5.99997 7 5.99997C7.26522 5.99997 7.51957 6.10533 7.70711 6.29287C7.89464 6.4804 8 6.73476 8 6.99997C8 7.26519 7.89464 7.51955 7.70711 7.70708C7.51957 7.89462 7.26522 7.99997 7 7.99997ZM6.648 9.99597C6.76467 10.136 6.882 10.272 7 10.402C7.118 10.272 7.23533 10.1366 7.352 9.99597C7.11736 10.001 6.88264 10.001 6.648 9.99597ZM5.318 9.91264C4.80604 9.85937 4.29747 9.77746 3.79467 9.66731C3.74467 9.90064 3.70667 10.1273 3.68133 10.3446C3.55467 11.4 3.73133 12.0413 4 12.196C4.26867 12.3513 4.912 12.1833 5.76333 11.5466C5.93867 11.4153 6.11533 11.2693 6.29267 11.11C5.94567 10.7294 5.62027 10.3296 5.318 9.91264ZM10.2053 9.66731C9.72733 9.77397 9.21667 9.85664 8.682 9.91264C8.37973 10.3296 8.05433 10.7294 7.70733 11.11C7.88467 11.27 8.06133 11.4153 8.23667 11.5466C9.088 12.1833 9.73133 12.3513 10 12.196C10.2687 12.0413 10.4447 11.4 10.3193 10.3446C10.2918 10.1173 10.254 9.89126 10.206 9.66731H10.2053ZM11.172 9.40931C11.5567 11.1686 11.3547 12.5693 10.5 13.0626C9.64533 13.556 8.33133 13.0306 7 11.818C5.66867 13.0306 4.35467 13.5553 3.5 13.062C2.64533 12.5686 2.44333 11.1686 2.82733 9.40864C1.11133 8.86264 0 7.98664 0 6.99997C0 6.01331 1.11133 5.13797 2.82733 4.59064C2.44333 2.83131 2.64533 1.43064 3.5 0.937308C4.35467 0.443974 5.66867 0.969308 7 2.18197C8.33133 0.969308 9.64533 0.444641 10.5 0.937974C11.3547 1.43131 11.5567 2.83131 11.1727 4.59131C12.8887 5.13731 14 6.01331 14 6.99997C14 7.98664 12.8887 8.86197 11.1727 9.40931H11.172ZM6.292 2.88997C6.12246 2.73651 5.94606 2.59081 5.76333 2.45331C4.912 1.81664 4.26867 1.64864 4 1.80397C3.73133 1.95864 3.55533 2.59997 3.68067 3.65531C3.70733 3.87331 3.74467 4.09931 3.794 4.33264C4.29702 4.22246 4.80582 4.14056 5.318 4.08731C5.63467 3.65197 5.96133 3.25131 6.29267 2.88997H6.292ZM8.682 4.08731C9.21667 4.14331 9.72733 4.22664 10.2053 4.33264C10.2553 4.09931 10.2933 3.87264 10.3187 3.65531C10.4453 2.59997 10.2687 1.95864 10 1.80397C9.73133 1.64864 9.088 1.81664 8.23667 2.45331C8.05371 2.59079 7.87709 2.7365 7.70733 2.88997C8.03867 3.25131 8.36533 3.65197 8.682 4.08731ZM7.352 4.00397C7.23533 3.86397 7.118 3.72797 7 3.59797C6.882 3.72797 6.76467 3.86331 6.648 4.00397C6.88264 3.99899 7.11736 3.99899 7.352 4.00397ZM4.58133 8.80264C4.4597 8.60204 4.34235 8.39889 4.22933 8.19331C4.166 8.36464 4.10733 8.53331 4.054 8.70064C4.22533 8.73797 4.40133 8.77198 4.58067 8.80264H4.58133ZM5.86933 8.95864C6.62207 9.01455 7.37793 9.01455 8.13067 8.95864C8.55547 8.33461 8.9334 7.67992 9.26133 6.99997C8.9334 6.32003 8.55547 5.66534 8.13067 5.04131C7.37793 4.9854 6.62207 4.9854 5.86933 5.04131C5.44453 5.66534 5.06661 6.32003 4.73867 6.99997C5.06661 7.67992 5.44453 8.33461 5.86933 8.95864ZM9.77067 5.80664C9.834 5.63531 9.89267 5.46664 9.946 5.29931C9.77123 5.26138 9.59563 5.22737 9.41933 5.19731C9.54074 5.39791 9.65788 5.60107 9.77067 5.80664ZM3.08667 5.55797C2.86 5.63131 2.64533 5.71131 2.444 5.79797C1.46733 6.21664 1 6.68997 1 6.99997C1 7.30997 1.46667 7.78331 2.444 8.20197C2.64533 8.28864 2.86 8.36864 3.08667 8.44197C3.23467 7.97531 3.418 7.49131 3.63667 6.99997C3.42655 6.52996 3.24293 6.04853 3.08667 5.55797ZM4.05333 5.29931C4.10733 5.46597 4.166 5.63531 4.22933 5.80597C4.34235 5.60062 4.45971 5.39769 4.58133 5.19731C4.40133 5.22797 4.22533 5.26197 4.054 5.29931H4.05333ZM10.9133 8.44197C11.14 8.36864 11.3547 8.28864 11.556 8.20197C12.5327 7.78331 13 7.30997 13 6.99997C13 6.68997 12.5333 6.21664 11.556 5.79797C11.3455 5.70831 11.1311 5.62823 10.9133 5.55797C10.7653 6.02464 10.582 6.50864 10.3633 6.99997C10.582 7.49131 10.7653 7.97464 10.9133 8.44197ZM9.94667 8.70064C9.89267 8.53397 9.834 8.36464 9.77067 8.19397C9.65765 8.39933 9.54029 8.60226 9.41867 8.80264C9.59867 8.77198 9.77467 8.73797 9.946 8.70064H9.94667Z" fill="#616161"/>
</svg>
